<svg width="81" height="8" viewBox="0 0 81 8" fill="none" xmlns="http://www.w3.org/2000/svg">
<path d="M16.3755 0.471628C14.8835 0.932434 13.9654 1.52014 12.448 2.8352C10.4698 4.54508 7.83918 4.54912 5.08648 3.0356C4.33041 2.61989 3.90922 2.36507 3.68427 2.22025C3.57479 2.14977 3.51622 2.10819 3.49073 2.08936L2.71896 1.35424L0.5 4.39297L1.53723 5.24763C1.74853 5.41293 2.04598 5.63907 2.39191 5.88338C3.06367 6.35781 3.99257 6.95451 4.84797 7.27059C5.47223 7.50127 5.95463 7.67865 6.52008 7.78451C7.08478 7.89022 7.6965 7.91898 8.60326 7.91898C9.90915 7.91898 11.015 7.78199 12.0697 7.40001C13.1225 7.01874 14.0618 6.4161 15.0681 5.57051C16.5087 4.40194 17.5791 3.91005 18.8284 3.79767L18.8403 3.79661C20.325 3.64464 21.8187 4.1126 23.127 5.16749C24.8461 6.58102 25.8582 7.15711 27.5287 7.63297L27.5305 7.63347C30.014 8.33584 32.9284 7.99272 35.0987 6.72291C35.588 6.43599 36.528 5.74388 37.2262 5.16667C38.5343 4.11236 40.0276 3.64461 41.5119 3.79653L41.5238 3.79775C42.773 3.91012 43.8434 4.40193 45.284 5.57048C46.2904 6.41609 47.2297 7.01874 48.2825 7.40001C49.3372 7.78199 50.4431 7.91898 51.749 7.91898C53.0548 7.91898 54.1607 7.78199 55.2154 7.40001C56.2694 7.01831 57.2096 6.41473 58.2172 5.56763C59.7328 4.31434 61.1046 3.75832 62.4118 3.74212C63.7213 3.72589 65.1278 4.24928 66.7152 5.47596C67.7587 6.29084 68.6581 6.87797 69.5915 7.27781C70.5362 7.68249 71.4693 7.87565 72.5589 7.96101C75.2281 8.18837 77.4202 7.42556 79.8116 5.56563L80.5 5.03025L78.4377 1.76284L77.5891 2.45498C76.6657 3.20815 76.0441 3.6187 75.4525 3.85673C74.8796 4.08726 74.2678 4.18245 73.3218 4.18245C72.3758 4.18245 71.764 4.08726 71.1911 3.85673C70.6006 3.61912 69.9801 3.20959 69.0593 2.45893C67.1235 0.836998 64.9045 -0.00316429 62.6224 9.05991e-06C60.342 0.00318003 58.0729 0.848003 56.0293 2.46715C54.3885 3.75203 53.0281 4.29556 51.7607 4.29556C50.4931 4.29556 49.1325 3.75181 47.4912 2.46638C46.1042 1.37326 45.1723 0.851444 43.8242 0.445619L43.8168 0.443389C40.4903 -0.529159 36.9835 0.215854 34.4392 2.45591C33.6321 3.16571 33.0076 3.5801 32.3899 3.82822C31.78 4.0732 31.1108 4.18245 30.1761 4.18245C29.2414 4.18245 28.5722 4.0732 27.9623 3.82822C27.3445 3.58007 26.7199 3.1656 25.9127 2.45561C23.3948 0.240932 19.5993 -0.557474 16.3755 0.471628Z" fill="#F2AB43"/>
</svg>
