<svg width="80" height="8" viewBox="0 0 80 8" fill="none" xmlns="http://www.w3.org/2000/svg">
<path d="M15.8755 0.471628C14.3835 0.932434 13.4654 1.52014 11.948 2.8352C9.9698 4.54508 7.33918 4.54912 4.58648 3.0356C3.83041 2.61989 3.40922 2.36507 3.18427 2.22025C3.07479 2.14977 3.01622 2.10819 2.99073 2.08936L2.21896 1.35424L0 4.39297L1.03723 5.24763C1.24853 5.41293 1.54598 5.63907 1.89191 5.88338C2.56367 6.35781 3.49257 6.95451 4.34797 7.27059C4.97223 7.50127 5.45463 7.67865 6.02008 7.78451C6.58478 7.89022 7.1965 7.91898 8.10326 7.91898C9.40915 7.91898 10.515 7.78199 11.5697 7.40001C12.6225 7.01874 13.5618 6.4161 14.5681 5.57051C16.0087 4.40194 17.0791 3.91005 18.3284 3.79767L18.3403 3.79661C19.825 3.64464 21.3187 4.1126 22.627 5.16749C24.3461 6.58102 25.3582 7.15711 27.0287 7.63297L27.0305 7.63347C29.514 8.33584 32.4284 7.99272 34.5987 6.72291C35.088 6.43599 36.028 5.74388 36.7262 5.16667C38.0343 4.11236 39.5276 3.64461 41.0119 3.79653L41.0238 3.79775C42.273 3.91012 43.3434 4.40193 44.784 5.57048C45.7904 6.41609 46.7297 7.01874 47.7825 7.40001C48.8372 7.78199 49.9431 7.91898 51.249 7.91898C52.5548 7.91898 53.6607 7.78199 54.7154 7.40001C55.7694 7.01831 56.7096 6.41473 57.7172 5.56763C59.2328 4.31434 60.6046 3.75832 61.9118 3.74212C63.2213 3.72589 64.6278 4.24928 66.2152 5.47596C67.2587 6.29084 68.1581 6.87797 69.0915 7.27781C70.0362 7.68249 70.9693 7.87565 72.0589 7.96101C74.7281 8.18837 76.9202 7.42556 79.3116 5.56563L80 5.03025L77.9377 1.76284L77.0891 2.45498C76.1657 3.20815 75.5441 3.6187 74.9525 3.85673C74.3796 4.08726 73.7678 4.18245 72.8218 4.18245C71.8758 4.18245 71.264 4.08726 70.6911 3.85673C70.1006 3.61912 69.4801 3.20959 68.5593 2.45893C66.6235 0.836998 64.4045 -0.00316429 62.1224 9.05991e-06C59.842 0.00318003 57.5729 0.848003 55.5293 2.46715C53.8885 3.75203 52.5281 4.29556 51.2607 4.29556C49.9931 4.29556 48.6325 3.75181 46.9912 2.46638C45.6042 1.37326 44.6723 0.851444 43.3242 0.445619L43.3168 0.443389C39.9903 -0.529159 36.4835 0.215854 33.9392 2.45591C33.1321 3.16571 32.5076 3.5801 31.8899 3.82822C31.28 4.0732 30.6108 4.18245 29.6761 4.18245C28.7414 4.18245 28.0722 4.0732 27.4623 3.82822C26.8445 3.58007 26.2199 3.1656 25.4127 2.45561C22.8948 0.240932 19.0993 -0.557474 15.8755 0.471628Z" fill="#402717"/>
</svg>
