<svg width="2043" height="80" viewBox="0 0 2043 80" fill="none" xmlns="http://www.w3.org/2000/svg">
<path fill-rule="evenodd" clip-rule="evenodd" d="M0.596106 80H2042.3C2039.5 78.3473 2035.67 76.9 2030.82 75.7195C2018.17 72.5842 2010.82 67.3588 1986.74 44.7845C1982.66 41.0222 1979.39 34.9606 1979.39 31.1982C1979.39 22.6284 1971.64 5.48877 1965.92 1.93542C1963.88 0.609619 1960.29 0.00585938 1956.06 0H1955.93C1947.52 0.0117188 1936.63 2.375 1930.41 6.11584C1923.47 10.5052 1920.2 10.9233 1886.73 10.0872C1777.33 7.57898 1535.27 11.9684 1472.41 17.6119C1443.02 20.1201 1426.69 20.3292 1371.58 18.448C1315.66 16.3578 1303.82 16.5669 1288.72 19.2842C1266.68 23.2555 1154.83 27.0179 1083.39 26.3909C974.813 25.1367 785.409 26.8088 771.122 29.108C763.366 30.3622 744.181 32.0343 728.261 32.8704C712.749 33.9154 691.523 35.5876 681.318 36.8418C671.113 37.8868 644.172 38.9319 620.905 39.141C592.331 39.141 575.186 40.186 567.43 42.2762C560.899 43.9485 554.368 44.5756 553.144 43.7395C551.511 43.1124 548.653 43.5304 547.021 44.9935C544.571 47.0837 523.345 47.0837 444.154 45.4116C189.03 39.559 157.598 37.887 107.798 28.899C75.1421 23.0465 69.0192 22.4194 58.8142 24.7186C51.8748 26.1818 44.5273 27.2268 42.4862 27.0178C35.955 26.3907 26.9746 38.723 29.8321 44.3666C31.4649 47.9199 30.6485 49.592 27.3828 49.592C24.5254 49.592 16.7697 54.1904 10.6466 60.043C2.10428 67.7819 0.173132 70.5106 0.596106 80Z" fill="#FFF6E9"/>
</svg>
