<svg width="2109" height="850" viewBox="0 0 2109 850" fill="none" xmlns="http://www.w3.org/2000/svg">
<mask id="mask0_1_49" style="mask-type:alpha" maskUnits="userSpaceOnUse" x="0" y="0" width="2109" height="850">
<path d="M1190.93 0.906276C1187.26 2.78746 1000.3 6.75884 960.705 5.92276C920.293 4.87766 848.042 6.3408 837.837 8.22198C832.122 9.4761 823.142 10.3122 817.427 10.3122C812.12 10.3122 804.364 11.1483 800.282 12.1934C789.669 15.1196 739.869 19.091 706.397 19.9271C689.66 20.1361 670.475 21.3902 663.536 22.4353C656.188 23.4804 638.635 24.1075 623.94 23.8985C609.245 23.6895 593.734 24.3165 589.243 25.1526C578.63 27.0338 523.523 29.751 487.194 30.1691C471.682 30.3781 408.003 31.2142 345.957 32.0503C267.174 33.3044 230.436 33.0954 224.721 31.4232C218.598 29.751 211.251 29.9601 196.556 32.0503C185.942 33.7224 165.941 36.6487 152.47 38.5299C139 40.4111 119.814 43.9644 109.609 46.4726C99.8124 48.9809 89.6074 51.0711 87.5664 51.0711C80.627 51.0711 80.2188 57.5507 86.3418 60.895C91.2402 63.4033 91.6484 64.6574 86.75 69.0468C83.8926 71.7641 82.668 76.1535 83.8926 78.6617C85.1172 81.17 83.0762 86.1865 79.8106 89.5308C76.1368 93.2931 75.3204 96.4284 77.3614 97.2645C79.4024 97.8916 81.0352 101.445 81.0352 104.998C81.0352 108.761 82.668 114.822 84.709 118.376C87.9746 123.81 87.1582 126.109 80.627 130.29C75.3204 133.843 74.504 135.724 77.7696 136.142C81.0352 136.769 79.8106 139.905 73.6876 146.384C68.7892 151.61 63.8908 158.716 63.0745 162.27C62.6663 165.823 58.9925 170.84 54.9105 173.557C51.2367 176.274 48.3793 182.545 48.3793 187.561C48.3793 192.369 45.9301 198.639 42.6645 201.147C39.3989 203.656 35.7251 209.926 34.0923 215.152C30.4185 230.828 29.6021 232.291 23.4791 234.8C15.7233 237.935 14.0905 251.312 16.9479 288.309C17.3561 292.28 16.1315 297.715 14.4987 300.014C12.0495 303.567 13.2741 304.821 20.2135 305.658C24.7037 306.285 27.9693 307.748 26.7447 308.584C23.4791 311.092 32.0513 323.424 41.4399 330.113C49.6039 336.174 50.4203 342.236 43.4809 350.388C41.0317 353.523 38.1743 358.54 37.7661 361.466C36.9497 364.183 27.9693 370.663 17.7643 375.679C-2.23743 385.921 -2.64563 386.548 4.29376 399.926C8.37575 407.659 7.96755 410.377 3.47736 414.766C-1.01283 419.155 -1.01283 420.619 2.66096 421.873C5.51836 422.709 7.96755 425.217 7.96755 427.516C7.55935 429.606 7.55935 434.623 7.55935 438.594C7.15115 442.357 9.19215 446.746 11.2331 447.791C13.6823 449.045 15.7233 451.972 15.7233 454.48C15.7233 456.779 20.2135 462.214 26.3365 466.603C35.7251 473.71 36.1333 474.755 30.4185 477.681C21.4381 482.279 22.2545 484.579 33.6841 486.042C41.0317 486.878 43.8891 488.968 45.9301 495.448C47.1547 499.837 50.4203 503.6 52.8695 503.6C55.3187 503.6 55.7269 504.854 53.2777 506.944C51.2367 509.034 50.8285 513.632 52.8695 518.022C55.3187 523.456 54.5023 526.383 50.0121 528.891C46.7465 530.772 42.6645 535.789 41.4399 539.969C39.3989 546.449 40.2153 547.494 47.5629 547.494C56.9515 547.494 74.504 564.424 78.9942 578.22C81.4434 585.535 80.2188 587.626 72.0548 591.806C59.8089 597.868 51.6449 606.019 54.0941 609.364C55.3187 610.827 53.2777 613.126 50.0121 614.38C46.7465 615.843 44.2973 617.933 44.2973 618.979C44.2973 620.024 40.2153 623.577 35.7251 626.921C30.8267 630.266 27.1529 635.491 27.5611 638.835C27.9693 641.971 28.3775 647.405 28.3775 650.541C28.3775 653.885 30.8267 658.692 34.0923 661.201C43.8891 668.516 45.9301 680.849 38.5825 686.492C29.6021 693.599 30.4185 695.48 43.8891 699.66C53.2777 702.587 54.9105 704.05 52.0531 706.976C49.1957 709.275 50.0121 712.411 54.0941 716.591C57.3597 719.726 59.4007 723.071 58.1761 723.698C56.9515 724.325 58.9925 728.296 62.2581 732.476C65.9318 736.657 67.5646 741.046 66.7482 742.091C65.5237 742.927 63.4827 751.915 62.2581 761.739C60.6253 778.461 61.0335 780.342 71.6466 789.957C77.7696 795.81 85.5254 800.408 88.3828 800.408C91.6484 800.408 92.4648 802.08 90.832 805.633C87.9746 811.277 96.955 823.609 103.486 822.982C105.527 822.773 112.875 823.818 119.814 825.281C130.019 827.581 136.142 826.954 168.798 821.101C218.598 812.113 250.03 810.441 505.154 804.588C584.345 802.916 605.571 802.916 608.021 805.006C609.653 806.47 612.511 806.888 614.143 806.261C615.368 805.424 621.899 806.052 628.43 807.724C636.186 809.814 653.331 810.859 681.905 810.859C705.172 811.068 732.113 812.113 742.318 813.158C752.523 814.412 773.749 816.085 789.261 817.13C805.181 817.966 824.366 819.638 832.122 820.892C846.409 823.191 1035.81 824.863 1144.39 823.609C1215.83 822.982 1327.68 826.744 1349.72 830.716C1364.82 833.433 1376.66 833.642 1432.58 831.552C1487.69 829.671 1504.02 829.88 1533.41 832.388C1596.27 838.032 1838.33 842.421 1947.73 839.913C1981.2 839.077 1984.47 839.495 1991.41 843.884C2000.8 849.528 2020.8 852.036 2026.92 848.065C2032.64 844.511 2040.39 827.372 2040.39 818.802C2040.39 815.039 2043.66 808.978 2047.74 805.215C2071.82 782.641 2079.17 777.416 2091.82 774.281C2108.97 770.1 2113.46 762.575 2104.48 754.424C2100.81 751.288 2098.76 748.153 2100.4 747.317C2101.62 746.69 2099.58 744.182 2095.5 741.882C2088.97 738.329 2088.15 734.567 2088.97 719.726C2089.38 709.902 2091.42 699.869 2093.05 697.361C2095.09 694.644 2095.91 689.836 2095.09 686.492C2094.27 682.939 2093.87 675.414 2094.27 669.77C2096.31 632.774 2095.91 630.475 2078.76 615.216C2058.35 596.613 2053.45 590.134 2053.05 580.519C2052.64 576.129 2050.19 571.949 2046.92 571.113C2040.39 569.232 2035.09 539.133 2041.62 539.133C2044.07 539.133 2044.07 538.088 2041.21 536.416C2037.13 533.907 2041.21 512.378 2046.51 507.78C2048.15 506.526 2050.19 497.747 2051.41 488.341C2052.23 478.935 2054.27 464.095 2055.5 455.525C2059.17 427.725 2059.58 417.901 2057.13 417.901C2055.9 417.901 2054.68 412.467 2054.27 405.778C2053.86 395.118 2051 385.503 2046.92 379.233C2042.43 372.544 2052.23 344.326 2063.25 333.039C2072.64 323.006 2075.09 317.572 2075.91 303.985C2076.72 294.788 2079.58 273.677 2082.44 256.956C2087.74 226.23 2085.7 204.283 2076.72 196.967C2073.05 193.832 2073.86 191.324 2080.4 184.635C2087.33 177.737 2087.74 175.02 2084.48 166.032C2082.44 160.18 2079.99 148.892 2079.58 140.95C2078.76 132.798 2077.13 119.212 2075.5 110.433C2073.05 96.0104 2073.86 94.3382 2081.62 90.5759C2086.52 88.4857 2092.64 84.3053 2095.5 81.379C2102.44 74.2723 2099.99 53.9974 2091.82 50.8621C2088.15 49.6079 2085.29 47.5178 2085.29 46.2636C2085.29 42.0832 2056.31 39.1569 1989.37 36.6487C1982.84 36.4397 1969.77 35.1856 1960.79 33.9314C1937.53 30.3781 1901.6 28.4969 1855.89 28.4969C1826.9 28.4969 1817.11 27.8699 1818.33 25.9887C1820.37 23.2714 1795.88 19.9271 1745.26 16.3738C1713.83 14.2836 1683.63 15.3287 1674.65 18.882C1671.79 20.1361 1668.52 19.7181 1665.66 18.2549C1662.81 16.3738 1645.66 15.3287 1613.01 14.9106C1586.47 14.4926 1553.82 13.2385 1540.35 11.9843C1513.81 9.4761 1495.04 9.4761 1462.79 11.5663C1446.46 12.6114 1440.75 12.1934 1436.67 9.4761C1433.4 7.3859 1424.42 6.13178 1414.21 5.92276C1405.23 5.71374 1392.99 5.08668 1387.27 4.2506C1381.56 3.41452 1368.9 3.83256 1358.7 5.08668C1344.41 6.96786 1337.06 6.96786 1326.04 4.87766C1306.45 1.32432 1289.31 1.32432 1281.14 5.08668C1275.02 7.80394 1273.39 7.80394 1265.63 4.04158C1255.83 -0.556865 1246.04 -1.39294 1243.59 2.36942C1242.36 4.04158 1239.1 4.2506 1233.79 2.99648C1225.63 1.1153 1193.38 -0.556865 1190.93 0.906276Z" fill="white"/>
</mask>
<g mask="url(#mask0_1_49)">
<rect x="53" y="770" width="2056" height="80" fill="#FFF6E9"/>
</g>
</svg>
