<svg width="542" height="220" viewBox="0 0 542 220" fill="none" xmlns="http://www.w3.org/2000/svg">
<g filter="url(#filter0_d_309_2354)">
<path d="M293.621 52.8689C292.86 53.1586 253.245 57.0421 244.838 57.666C236.256 58.2801 220.945 59.7725 218.8 60.1815C217.6 60.4343 215.704 60.6972 214.492 60.8016C213.366 60.8985 211.73 61.139 210.874 61.3373C208.653 61.8775 198.13 63.2569 191.039 63.967C187.491 64.2973 183.434 64.796 181.973 65.0464C180.425 65.3043 176.708 65.699 173.589 65.9426C170.47 66.1861 167.186 66.5436 166.242 66.7245C164.01 67.141 152.349 68.4688 144.647 69.1816C141.359 69.4895 127.861 70.7511 114.708 71.9829C98.0104 73.5697 90.2157 74.2157 88.9865 74.1221C87.6707 74.0359 86.1143 74.1948 83.0186 74.7106C80.7844 75.1023 76.5716 75.8139 73.7335 76.2826C70.8954 76.7512 66.8621 77.5221 64.7231 78.0054C62.6706 78.4812 60.5273 78.915 60.0944 78.9522C58.6224 79.0789 58.6019 79.8535 59.9347 80.1376C60.9993 80.3451 61.0987 80.4861 60.1044 81.0952C59.526 81.4691 59.3109 82.0111 59.5963 82.2856C59.8816 82.5602 59.4998 83.1914 58.8412 83.6469C58.1003 84.1594 57.959 84.5455 58.4005 84.6072C58.8398 84.6442 59.2223 85.035 59.2585 85.4557C59.2969 85.9011 59.705 86.5889 60.1741 86.9723C60.9222 87.556 60.7724 87.8431 59.4297 88.4573C58.3403 88.9748 58.1863 89.2124 58.8832 89.2023C59.5823 89.2169 59.3545 89.6105 58.1217 90.4893C57.136 91.1974 56.1694 92.1282 56.0324 92.5637C55.982 92.9919 55.2539 93.6528 54.4158 94.049C53.6642 94.4378 53.122 95.2323 53.1731 95.8262C53.2221 96.3953 52.7665 97.1824 52.0994 97.5389C51.4323 97.8955 50.7169 98.7049 50.4238 99.3534C49.8043 101.276 49.646 101.464 48.3728 101.873C46.7597 102.386 46.5496 103.999 47.5327 108.327C47.6598 108.79 47.4554 109.456 47.1325 109.758C46.6492 110.223 46.9217 110.349 48.4022 110.321C49.361 110.314 50.0686 110.427 49.8174 110.549C49.1502 110.905 51.0942 112.209 53.1538 112.829C54.9472 113.398 55.1822 114.1 53.7933 115.192C53.3057 115.608 52.7508 116.254 52.694 116.608C52.5485 116.944 50.7097 117.875 48.5962 118.656C44.4579 120.233 44.3777 120.315 45.986 121.772C46.9306 122.613 46.8717 122.942 45.964 123.544C45.0563 124.145 45.0713 124.319 45.8633 124.4C46.4779 124.447 47.023 124.699 47.0464 124.971C46.9811 125.226 47.0322 125.82 47.0727 126.29C47.0244 126.743 47.5021 127.225 47.9457 127.312C48.478 127.416 48.9407 127.725 48.9663 128.022C48.9897 128.294 49.9975 128.855 51.341 129.263C53.4048 129.933 53.5021 130.049 52.3197 130.5C50.4617 131.209 50.6583 131.466 53.0976 131.43C54.6646 131.395 55.292 131.59 55.791 132.32C56.0954 132.818 56.8264 133.203 57.346 133.159C57.8655 133.114 57.9648 133.255 57.4666 133.547C57.055 133.832 57.0153 134.384 57.4929 134.866C58.0678 135.465 57.9244 135.826 56.9976 136.205C56.3241 136.487 55.5094 137.156 55.2922 137.673C54.9253 138.477 55.1091 138.586 56.6676 138.452C58.6591 138.281 62.5547 139.964 63.6477 141.516C64.2418 142.337 64.0033 142.607 62.3142 143.251C59.7785 144.192 58.1299 145.306 58.6834 145.657C58.9581 145.808 58.5486 146.118 57.8687 146.326C57.1909 146.559 56.6927 146.851 56.7034 146.974C56.714 147.098 55.8844 147.593 54.9661 148.071C53.9611 148.557 53.2351 149.242 53.3558 149.631C53.4743 149.994 53.6163 150.63 53.6482 151.002C53.6823 151.397 54.2508 151.922 54.969 152.159C57.1216 152.846 57.6802 154.269 56.1792 155.071C54.3467 156.077 54.5391 156.284 57.439 156.533C59.4602 156.708 59.8215 156.852 59.2452 157.25C58.6625 157.575 58.8676 157.931 59.7761 158.351C60.5007 158.663 60.9677 159.022 60.7143 159.118C60.461 159.215 60.9344 159.648 61.6696 160.083C62.4915 160.511 62.8826 161.001 62.72 161.139C62.4688 161.261 62.1275 162.362 61.9678 163.547C61.7919 165.557 61.8976 165.772 64.2468 166.716C65.6052 167.298 67.2972 167.7 67.9033 167.648C68.5959 167.589 68.7861 167.772 68.476 168.222C67.9274 168.942 69.9579 170.238 71.3369 170.045C71.7677 169.983 73.3369 169.972 74.8237 170.019C77.0117 170.105 78.3041 169.919 85.1712 168.63C95.6429 166.656 102.293 165.885 156.348 160.534C173.129 158.89 177.631 158.503 178.172 158.705C178.533 158.849 179.144 158.846 179.483 158.742C179.735 158.621 181.126 158.576 182.529 158.654C184.195 158.76 187.842 158.571 193.903 158.049C198.841 157.649 204.566 157.281 206.741 157.218C208.919 157.181 213.438 156.991 216.739 156.832C220.124 156.64 224.211 156.488 225.869 156.494C228.922 156.506 269.115 153.246 292.133 151.115C307.279 149.736 331.042 148.14 335.758 148.207C338.989 148.253 341.502 148.062 353.343 146.794C365.012 145.565 368.478 145.291 374.738 145.052C388.129 144.572 439.518 140.672 462.697 138.378C469.789 137.668 470.486 137.658 472.002 138.051C474.051 138.547 478.319 138.479 479.578 137.897C480.754 137.372 482.224 135.202 482.137 134.187C482.098 133.742 482.729 132.964 483.557 132.444C488.435 129.332 489.941 128.58 492.593 127.977C496.187 127.169 497.062 126.197 495.075 125.396C494.263 125.091 493.798 124.758 494.136 124.629C494.39 124.532 493.931 124.272 493.042 124.075C491.62 123.773 491.409 123.343 491.431 121.571C491.417 120.401 491.748 119.176 492.069 118.849C492.474 118.49 492.598 117.906 492.391 117.525C492.181 117.119 492.018 116.236 492.047 115.56C492.103 111.143 491.993 110.878 488.201 109.385C483.682 107.555 482.577 106.878 482.393 105.747C482.262 105.235 481.699 104.784 480.998 104.745C479.594 104.642 478.161 101.175 479.547 101.056C480.066 101.011 480.056 100.887 479.432 100.742C478.541 100.519 479.188 97.896 480.266 97.2547C480.6 97.0764 480.943 95.9999 481.107 94.864C481.184 93.7355 481.466 91.9414 481.639 90.9045C482.135 87.5463 482.121 86.3759 481.602 86.4206C481.342 86.4429 481.027 85.8219 480.872 85.0375C480.677 83.783 479.973 82.6969 479.043 82.0291C478.022 81.3192 479.813 77.7998 482.036 76.2623C483.925 74.9031 484.389 74.2151 484.424 72.5917C484.503 71.488 484.894 68.9366 485.33 66.9049C486.142 63.1704 485.486 60.6095 483.506 59.9074C482.695 59.6033 482.843 59.2914 484.16 58.3803C485.562 57.4371 485.62 57.1079 484.836 56.1035C484.344 55.4479 483.709 54.1564 483.542 53.2235C483.285 52.2734 482.801 50.6948 482.365 49.6853C481.698 48.0226 481.854 47.8097 483.461 47.2227C484.479 46.8859 485.735 46.2792 486.311 45.8806C487.711 44.9125 486.985 42.557 485.221 42.3349C484.429 42.2535 483.802 42.0582 483.789 41.9097C483.746 41.4148 477.569 41.5975 463.344 42.5228C461.956 42.6173 459.173 42.7073 457.255 42.7228C452.284 42.727 444.645 43.1601 434.948 43.9948C428.8 44.5239 426.716 44.6286 426.956 44.3835C427.361 44.0246 422.132 44.0758 411.36 44.5793C404.671 44.9057 398.275 45.5809 396.406 46.1655C395.813 46.3662 395.116 46.3763 394.495 46.2552C393.87 46.0847 390.222 46.274 383.291 46.8207C377.659 47.2556 370.72 47.7034 367.85 47.8009C362.196 47.9883 358.213 48.3312 351.394 49.1674C347.942 49.5892 346.725 49.6441 345.832 49.3969C345.118 49.2091 343.2 49.2246 341.033 49.3861C339.126 49.5253 336.522 49.6747 335.302 49.68C334.081 49.6854 331.401 49.9659 329.249 50.3007C326.238 50.7843 324.68 50.9184 322.32 50.8722C318.128 50.8092 314.492 51.1223 312.798 51.7167C311.527 52.1502 311.181 52.18 309.497 51.8762C307.373 51.5107 305.286 51.5906 304.805 52.0807C304.562 52.301 303.872 52.3854 302.733 52.3338C300.982 52.2601 294.125 52.6509 293.621 52.8689Z" fill="white"/>
</g>
<path d="M102.926 138.43L100.003 104.476L111.003 103.529C117.698 102.953 122.873 103.936 126.529 106.48C130.185 109.024 132.253 113.086 132.733 118.665C133.024 122.045 132.514 125.076 131.203 127.758C129.892 130.44 127.929 132.633 125.313 134.335C122.695 136.006 119.584 136.996 115.982 137.306L102.926 138.43ZM110.124 130.825L115.05 130.401C118.525 130.102 121.084 129.046 122.727 127.235C124.399 125.389 125.095 122.84 124.815 119.588C124.518 116.144 123.358 113.675 121.335 112.179C119.34 110.648 116.414 110.049 112.556 110.381L108.395 110.739L110.124 130.825ZM143.959 110.376L146.055 134.718L138.738 135.348L136.642 111.006L143.959 110.376ZM140.03 107.823C138.627 107.944 137.474 107.61 136.571 106.82C135.668 106.031 135.166 105.046 135.064 103.867C134.963 102.687 135.274 101.633 135.997 100.703C136.751 99.771 137.846 99.2432 139.281 99.1197C140.684 98.9989 141.837 99.3333 142.74 100.123C143.643 100.912 144.145 101.897 144.246 103.076C144.348 104.256 144.021 105.312 143.267 106.244C142.512 107.176 141.433 107.703 140.03 107.823ZM172.493 96.7909L175.539 132.18L168.174 132.814L168.105 129.207C166.584 132.068 164.103 133.646 160.659 133.943C158.491 134.129 156.6 133.794 154.984 132.938C153.369 132.081 152.087 130.81 151.139 129.125C150.191 127.44 149.62 125.466 149.425 123.202C149.192 120.492 149.545 118.069 150.485 115.933C151.426 113.796 152.788 112.089 154.573 110.811C156.356 109.502 158.41 108.747 160.738 108.546C161.822 108.453 162.84 108.526 163.792 108.765C164.744 109.004 165.579 109.382 166.298 109.898L166.127 108.468L165.176 97.4207L172.493 96.7909ZM162.003 114.845C160.249 114.996 158.918 115.769 158.011 117.164C157.135 118.556 156.785 120.273 156.96 122.313C157.111 124.066 157.611 125.389 158.458 126.279C159.338 127.167 160.447 127.553 161.786 127.438C163.412 127.298 164.741 126.509 165.773 125.071C166.838 123.631 167.277 121.826 167.09 119.659C166.95 118.033 166.426 116.793 165.517 115.94C164.609 115.086 163.437 114.722 162.003 114.845ZM202.855 139.946C201.867 140.031 200.808 140.042 199.678 139.979C198.552 139.947 197.45 139.833 196.373 139.637C195.328 139.438 194.434 139.129 193.692 138.711L194.878 132.346C196.041 132.792 197.241 133.122 198.48 133.337C199.754 133.581 201.172 133.635 202.734 133.501C205.38 133.273 207.209 132.505 208.221 131.198C209.264 129.887 209.755 127.934 209.692 125.338L209.666 123.365C208.824 125.14 207.694 126.57 206.278 127.655C204.859 128.709 203.209 129.317 201.328 129.479C198.459 129.726 196.224 128.954 194.625 127.165C193.026 125.375 192.094 122.758 191.829 119.312L190.809 106.343L198.126 105.714L199.101 118.156C199.224 119.591 199.577 120.7 200.158 121.485C200.74 122.27 201.604 122.614 202.752 122.515C204.059 122.402 205.146 121.779 206.012 120.644C206.878 119.51 207.476 117.692 207.807 115.19C208.135 112.657 208.144 109.219 207.834 104.878L214.912 104.269L216.6 123.876C217.039 128.977 216.005 132.824 213.498 135.417C211.026 138.038 207.478 139.548 202.855 139.946ZM232.395 102.378C236.189 102.052 239.247 102.881 241.57 104.865C243.924 106.846 245.261 109.686 245.579 113.384C245.796 115.903 245.448 118.197 244.534 120.267C243.62 122.337 242.224 124.031 240.346 125.349C238.468 126.667 236.19 127.441 233.512 127.672C229.75 127.996 226.692 127.167 224.337 125.186C222.014 123.201 220.695 120.376 220.38 116.71C220.16 114.159 220.507 111.849 221.421 109.779C222.335 107.709 223.731 106.015 225.609 104.697C227.487 103.379 229.749 102.606 232.395 102.378ZM233.299 121.283C234.925 121.143 236.164 120.426 237.017 119.132C237.898 117.803 238.249 116.103 238.071 114.031C237.917 112.245 237.368 110.895 236.422 109.981C235.473 109.035 234.249 108.626 232.751 108.755C231.093 108.898 229.824 109.634 228.942 110.962C228.09 112.256 227.753 113.939 227.932 116.011C228.085 117.797 228.62 119.164 229.537 120.113C230.483 121.027 231.737 121.417 233.299 121.283ZM259.179 125.463C256.373 125.704 254.171 124.93 252.571 123.141C250.972 121.351 250.042 118.749 249.78 115.335L248.673 101.363L255.99 100.733L257.047 114.132C257.171 115.566 257.523 116.676 258.105 117.461C258.686 118.246 259.519 118.592 260.603 118.499C261.528 118.419 262.348 118.06 263.063 117.42C263.779 116.78 264.366 115.766 264.825 114.378C265.284 112.989 265.572 111.117 265.691 108.763C265.841 106.405 265.78 103.455 265.507 99.9138L272.585 99.3046L274.68 123.647L267.363 124.276L267.295 119.561C266.481 121.301 265.379 122.681 263.989 123.7C262.6 124.719 260.996 125.306 259.179 125.463ZM292.342 122.126L289.295 86.7372L296.612 86.1074L298.399 106.863L306.602 96.3766L315.306 95.6274L305.319 108.339C306.091 108.722 306.747 109.26 307.289 109.952L309.405 112.708C310.525 114.154 311.978 114.799 313.763 114.646C314.719 114.563 315.608 114.246 316.427 113.694L318.47 118.962C317.622 119.549 316.729 119.995 315.791 120.301C314.886 120.603 313.906 120.784 312.851 120.843C310.776 120.989 309.021 120.755 307.587 120.14C306.185 119.522 304.867 118.382 303.632 116.722L301.516 113.966C301.009 113.303 300.545 112.764 300.124 112.351C299.703 111.938 299.258 111.623 298.79 111.406L299.659 121.497L292.342 122.126ZM319.522 119.787L317.427 95.4448L324.696 94.8192L324.81 100.061C325.645 98.1902 326.786 96.7109 328.234 95.6227C329.711 94.4999 331.406 93.8562 333.319 93.6915C336.221 93.4418 338.474 94.2435 340.078 96.0967C341.681 97.918 342.623 100.663 342.907 104.332L343.96 117.683L336.643 118.313L335.636 105.488C335.525 103.828 335.161 102.59 334.545 101.776C333.958 100.927 333.091 100.552 331.943 100.651C330.987 100.733 330.135 101.096 329.387 101.738C328.636 102.349 328.016 103.35 327.526 104.741C327.067 106.13 326.762 108.003 326.612 110.36C326.462 112.718 326.521 115.651 326.791 119.161L319.522 119.787ZM359.098 91.4726C362.892 91.146 365.951 91.9748 368.273 93.9589C370.628 95.9403 371.964 98.7802 372.283 102.478C372.499 104.997 372.151 107.292 371.237 109.362C370.323 111.432 368.927 113.125 367.049 114.443C365.172 115.761 362.894 116.535 360.215 116.766C356.453 117.09 353.395 116.261 351.04 114.28C348.718 112.296 347.399 109.47 347.083 105.804C346.863 103.253 347.211 100.943 348.124 98.873C349.038 96.803 350.434 95.109 352.312 93.7911C354.19 92.4732 356.452 91.7004 359.098 91.4726ZM360.003 110.377C361.629 110.237 362.868 109.52 363.72 108.226C364.601 106.898 364.953 105.197 364.774 103.125C364.621 101.339 364.071 99.9895 363.125 99.0753C362.176 98.1292 360.953 97.7206 359.454 97.8496C357.797 97.9923 356.527 98.7278 355.646 100.056C354.793 101.35 354.457 103.033 354.635 105.106C354.789 106.891 355.324 108.258 356.241 109.207C357.186 110.121 358.441 110.511 360.003 110.377ZM407.864 87.6605L415.086 87.0389L408.812 112.101L399.678 112.888L394.594 99.1609L391.117 113.624L382.031 114.406L372.332 90.719L379.888 90.0686L386.308 107.004L390.409 89.163L397.391 88.562L403.728 105.65L407.864 87.6605ZM428.929 98.9517L423.404 99.1382C422.943 96.7689 422.947 94.7612 423.416 93.115C423.884 91.4687 424.82 90.0232 426.222 88.7783C427.203 87.8588 427.877 87.1102 428.245 86.5326C428.613 85.9549 428.769 85.3473 428.714 84.7096C428.657 84.0401 428.323 83.5228 427.714 83.1577C427.101 82.7608 426.174 82.6158 424.93 82.7228C423.495 82.8463 422.288 83.3678 421.307 84.2873C420.326 85.2068 419.647 86.4537 419.268 88.0279L413.513 85.5363C413.91 83.7999 414.659 82.2419 415.761 80.8623C416.863 79.4827 418.212 78.3709 419.81 77.5268C421.439 76.6799 423.21 76.1742 425.123 76.0095C427.195 75.8312 429.028 76.0428 430.622 76.6443C432.247 77.2431 433.545 78.1432 434.516 79.3443C435.518 80.5428 436.091 81.9709 436.233 83.6288C436.382 85.3505 436.128 86.8818 435.473 88.223C434.849 89.5614 433.808 90.9036 432.35 92.2496C430.983 93.5236 430.052 94.6475 429.557 95.6215C429.092 96.5609 428.883 97.6709 428.929 98.9517ZM427.267 110.995C425.896 111.113 424.745 110.794 423.813 110.039C422.88 109.284 422.358 108.253 422.246 106.946C422.136 105.671 422.476 104.582 423.265 103.679C424.055 102.776 425.135 102.265 426.506 102.147C427.877 102.029 429.028 102.348 429.96 103.103C430.893 103.857 431.414 104.872 431.523 106.148C431.636 107.455 431.297 108.56 430.508 109.463C429.718 110.366 428.638 110.877 427.267 110.995Z" fill="#4D678C"/>
<defs>
<filter id="filter0_d_309_2354" x="0.0136719" y="0.641602" width="541.102" height="218.423" filterUnits="userSpaceOnUse" color-interpolation-filters="sRGB">
<feFlood flood-opacity="0" result="BackgroundImageFix"/>
<feColorMatrix in="SourceAlpha" type="matrix" values="0 0 0 0 0 0 0 0 0 0 0 0 0 0 0 0 0 0 127 0" result="hardAlpha"/>
<feOffset dy="4"/>
<feGaussianBlur stdDeviation="22.5"/>
<feComposite in2="hardAlpha" operator="out"/>
<feColorMatrix type="matrix" values="0 0 0 0 0 0 0 0 0 0 0 0 0 0 0 0 0 0 0.25 0"/>
<feBlend mode="normal" in2="BackgroundImageFix" result="effect1_dropShadow_309_2354"/>
<feBlend mode="normal" in="SourceGraphic" in2="effect1_dropShadow_309_2354" result="shape"/>
</filter>
</defs>
</svg>
