<svg width="465" height="213" viewBox="0 0 465 213" fill="none" xmlns="http://www.w3.org/2000/svg">
<g filter="url(#filter0_d_1911_519)">
<path d="M250.366 50.0011C249.739 50.2794 216.918 53.5781 209.949 54.0782C202.835 54.5658 190.15 55.8322 188.376 56.2093C187.384 56.4442 185.814 56.6791 184.809 56.7655C183.877 56.8458 182.522 57.0622 181.815 57.2476C179.979 57.7546 171.266 58.9783 165.391 59.5837C162.451 59.8616 159.092 60.3004 157.883 60.5291C156.602 60.764 153.523 61.1038 150.938 61.3014C148.353 61.4989 145.632 61.8079 144.852 61.9748C143.005 62.3581 133.347 63.5135 126.965 64.1126C124.241 64.3721 113.056 65.4345 102.158 66.4722C88.3232 67.8126 81.8635 68.3437 80.842 68.2322C79.7487 68.1269 78.4593 68.2628 75.8975 68.7326C74.049 69.0911 70.5631 69.7402 68.2145 70.1667C65.8658 70.5932 62.5297 71.3041 60.7615 71.7555C59.0651 72.2006 57.2926 72.6025 56.9338 72.6334C55.7141 72.7383 55.7083 73.5116 56.8187 73.8149C57.7053 74.0377 57.7898 74.18 56.9735 74.7738C56.4989 75.1387 56.3284 75.6769 56.5692 75.9553C56.81 76.2337 56.5024 76.8584 55.9625 77.3038C55.355 77.8048 55.2435 78.1883 55.6108 78.2564C55.9759 78.2998 56.2991 78.6957 56.3353 79.1164C56.3737 79.5618 56.7224 80.2547 57.1174 80.6445C57.7468 81.2384 57.6267 81.523 56.5213 82.1167C55.6247 82.6177 55.5004 82.8527 56.0787 82.8528C56.6591 82.8776 56.4758 83.2673 55.4655 84.1271C54.6578 84.8198 53.8692 85.7352 53.7619 86.1682C53.7263 86.5951 53.1317 87.2446 52.4419 87.628C51.8238 88.0053 51.3855 88.7908 51.4366 89.3847C51.4856 89.9539 51.1189 90.7333 50.5705 91.0796C50.022 91.426 49.4402 92.2239 49.2064 92.8672C48.7204 94.7787 48.5918 94.9643 47.5411 95.3538C46.2098 95.8423 46.0591 97.4507 46.9384 101.787C47.0506 102.251 46.8907 102.913 46.6271 103.21C46.2328 103.668 46.4609 103.798 47.6891 103.792C48.4848 103.798 49.0737 103.922 48.867 104.039C48.3185 104.386 49.951 105.716 51.6694 106.366C53.1662 106.96 53.3715 107.665 52.2348 108.735C51.8362 109.143 51.3851 109.781 51.3431 110.133C51.2273 110.467 49.7148 111.37 47.9722 112.118C44.5607 113.634 44.4954 113.714 45.8514 115.193C46.6478 116.046 46.6037 116.374 45.8592 116.962C45.1146 117.549 45.1295 117.723 45.7881 117.816C46.2989 117.871 46.7549 118.131 46.7783 118.403C46.7279 118.657 46.779 119.251 46.8195 119.721C46.7861 120.173 47.1896 120.661 47.559 120.754C48.0022 120.866 48.3908 121.181 48.4164 121.478C48.4398 121.75 49.2844 122.326 50.4054 122.753C52.1281 123.452 52.2105 123.57 51.2358 124.003C49.7042 124.683 49.8711 124.943 51.895 124.943C53.1951 124.931 53.7186 125.135 54.1434 125.871C54.4034 126.372 55.0157 126.768 55.4462 126.731C55.8768 126.694 55.9613 126.836 55.5521 127.121C55.2146 127.399 55.1897 127.95 55.5932 128.439C56.0791 129.045 55.9654 129.404 55.2017 129.769C54.6469 130.041 53.9805 130.696 53.8078 131.21C53.5151 132.008 53.6692 132.119 54.9608 132.008C56.611 131.866 59.8689 133.605 60.7987 135.17C61.3037 135.999 61.1098 136.265 59.7174 136.883C57.6266 137.786 56.2746 138.875 56.7392 139.234C56.9694 139.388 56.6341 139.691 56.0728 139.889C55.5137 140.112 55.1045 140.396 55.1152 140.52C55.1258 140.644 54.4445 141.126 53.6893 141.59C52.8624 142.06 52.2699 142.734 52.3757 143.124C52.4794 143.489 52.6066 144.126 52.6385 144.498C52.6726 144.893 53.1521 145.426 53.7516 145.673C55.5482 146.391 56.0326 147.82 54.7986 148.599C53.2925 149.576 53.4552 149.787 55.8656 150.078C57.5457 150.282 57.8476 150.431 57.3751 150.82C56.8963 151.136 57.0718 151.495 57.8319 151.928C58.4378 152.25 58.8307 152.615 58.6218 152.707C58.4129 152.8 58.8122 153.239 59.4288 153.685C60.1171 154.124 60.4489 154.619 60.316 154.755C60.1093 154.873 59.8421 155.968 59.727 157.149C59.6103 159.154 59.7013 159.37 61.6648 160.348C62.8007 160.948 64.2108 161.375 64.7131 161.332C65.2871 161.282 65.4476 161.468 65.1968 161.913C64.7521 162.625 66.4562 163.949 67.5979 163.776C67.9545 163.72 69.2567 163.733 70.4913 163.801C72.3085 163.919 73.3784 163.752 79.0589 162.565C87.7209 160.747 93.2287 160.074 138.013 155.521C151.916 154.125 155.647 153.804 156.099 154.014C156.401 154.163 156.907 154.169 157.188 154.07C157.395 153.953 158.549 153.928 159.714 154.027C161.099 154.157 164.123 154.022 169.146 153.589C173.237 153.262 177.984 152.978 179.788 152.947C181.595 152.942 185.343 152.818 188.08 152.707C190.887 152.566 194.276 152.473 195.652 152.504C198.187 152.56 231.496 149.893 250.569 148.101C263.119 146.946 282.817 145.7 286.733 145.836C289.415 145.929 291.498 145.775 301.306 144.682C310.974 143.625 313.846 143.403 319.038 143.255C330.145 142.972 372.738 139.829 391.941 137.877C397.817 137.272 398.395 137.272 399.659 137.687C401.367 138.213 404.908 138.207 405.944 137.644C406.912 137.137 408.101 134.991 408.014 133.976C407.975 133.531 408.488 132.764 409.167 132.257C413.17 129.22 414.408 128.49 416.601 127.927C419.572 127.173 420.284 126.214 418.623 125.385C417.945 125.07 417.554 124.729 417.833 124.606C418.042 124.513 417.657 124.247 416.916 124.036C415.732 123.714 415.55 123.281 415.543 121.512C415.514 120.343 415.771 119.124 416.032 118.803C416.363 118.45 416.458 117.869 416.28 117.485C416.1 117.077 415.952 116.192 415.966 115.518C415.948 111.107 415.853 110.841 412.684 109.294C408.907 107.401 407.98 106.708 407.81 105.575C407.694 105.062 407.22 104.604 406.638 104.555C405.471 104.431 404.231 100.948 405.379 100.849C405.81 100.812 405.799 100.688 405.28 100.533C404.537 100.298 405.035 97.6877 405.921 97.063C406.195 96.8898 406.464 95.8196 406.584 94.6876C406.631 93.5617 406.839 91.7739 406.967 90.7409C407.329 87.3942 407.301 86.225 406.87 86.2621C406.655 86.2806 406.385 85.6558 406.245 84.8701C406.064 83.6143 405.464 82.5192 404.683 81.8386C403.825 81.1147 405.26 77.6259 407.082 76.123C408.63 74.7932 409.005 74.1127 409.01 72.492C409.06 71.3908 409.347 68.8483 409.679 66.8255C410.299 63.1077 409.716 60.5404 408.063 59.8102C407.385 59.4946 407.503 59.1853 408.583 58.2946C409.733 57.373 409.777 57.0452 409.111 56.0306C408.693 55.3686 408.147 54.0694 407.995 53.1353C407.768 52.1826 407.343 50.5988 406.966 49.5842C406.389 47.9139 406.515 47.7036 407.84 47.1408C408.68 46.8193 409.713 46.2317 410.186 45.8421C411.333 44.8958 410.696 42.5325 409.229 42.2849C408.571 42.192 408.047 41.9878 408.034 41.8393C407.992 41.3444 402.868 41.4365 391.075 42.1524C389.925 42.2265 387.616 42.2756 386.025 42.263C381.899 42.1944 375.565 42.5151 367.529 43.2068C362.435 43.6453 360.706 43.7193 360.903 43.4781C361.234 43.1255 356.894 43.1002 347.961 43.4453C342.415 43.6734 337.116 44.2541 335.574 44.8107C335.084 45.0024 334.506 45.0023 333.989 44.8723C333.467 44.6928 330.443 44.8285 324.699 45.2731C320.031 45.625 314.278 45.9706 311.897 46.026C307.208 46.1305 303.907 46.4146 298.26 47.1499C295.401 47.5207 294.392 47.5576 293.647 47.2977C293.052 47.0997 291.46 47.0871 289.665 47.2167C288.084 47.3278 285.925 47.4389 284.912 47.4264C283.899 47.4139 281.679 47.6548 279.898 47.9577C277.406 48.3965 276.114 48.5077 274.156 48.427C270.675 48.3028 267.662 48.5622 266.265 49.1311C265.217 49.5454 264.93 49.5701 263.528 49.242C261.759 48.8459 260.029 48.8951 259.636 49.3776C259.438 49.5941 258.866 49.6682 257.921 49.6C256.467 49.5009 250.781 49.7908 250.366 50.0011Z" fill="white"/>
</g>
<path d="M141.926 129.43L139.003 95.4757L150.003 94.529C156.698 93.9527 161.873 94.9365 165.529 97.4804C169.185 100.024 171.253 104.086 171.733 109.665C172.024 113.045 171.514 116.076 170.203 118.758C168.892 121.44 166.929 123.633 164.313 125.335C161.695 127.006 158.584 127.996 154.982 128.306L141.926 129.43ZM149.124 121.825L154.05 121.401C157.525 121.102 160.084 120.046 161.727 118.235C163.399 116.389 164.095 113.84 163.815 110.588C163.518 107.144 162.358 104.675 160.335 103.179C158.34 101.648 155.414 101.049 151.556 101.381L147.395 101.739L149.124 121.825ZM182.959 101.376L185.055 125.718L177.738 126.348L175.642 102.006L182.959 101.376ZM179.03 98.8235C177.627 98.9442 176.474 98.6099 175.571 97.8204C174.668 97.0309 174.166 96.0464 174.064 94.8668C173.963 93.6871 174.274 92.6326 174.997 91.7032C175.751 90.771 176.846 90.2432 178.281 90.1197C179.684 89.9989 180.837 90.3333 181.74 91.1228C182.643 91.9122 183.145 92.8968 183.246 94.0764C183.348 95.2561 183.021 96.312 182.267 97.2441C181.512 98.1763 180.433 98.7028 179.03 98.8235ZM199.612 124.947C196.073 125.251 193.338 124.828 191.409 123.678C189.476 122.495 188.257 120.833 187.752 118.693L193.693 116.64C193.964 117.548 194.555 118.252 195.465 118.751C196.373 119.219 197.575 119.389 199.074 119.26C201.465 119.054 202.613 118.393 202.517 117.277C202.467 116.703 202.079 116.303 201.353 116.077C200.656 115.815 199.53 115.607 197.975 115.452C195.062 115.189 192.76 114.568 191.07 113.589C189.412 112.608 188.484 110.97 188.286 108.674C188.152 107.112 188.479 105.686 189.267 104.398C190.056 103.11 191.201 102.048 192.703 101.212C194.205 100.376 195.976 99.8701 198.016 99.6945C200.662 99.4667 202.9 99.9005 204.728 100.996C206.589 102.088 207.757 103.529 208.232 105.319L202.394 107.46C202.111 106.777 201.615 106.242 200.907 105.853C200.231 105.462 199.335 105.314 198.219 105.41C197.167 105.501 196.401 105.743 195.921 106.138C195.473 106.53 195.27 106.965 195.311 107.443C195.36 108.017 195.735 108.45 196.434 108.743C197.131 109.005 198.34 109.238 200.06 109.443C201.809 109.614 203.362 109.93 204.718 110.391C206.104 110.818 207.206 111.494 208.024 112.419C208.872 113.31 209.367 114.584 209.51 116.242C209.644 117.804 209.3 119.215 208.477 120.474C207.686 121.73 206.52 122.746 204.981 123.521C203.442 124.296 201.652 124.771 199.612 124.947ZM225.023 122.759C222.504 122.976 220.279 122.686 218.347 121.889C216.413 121.06 214.858 119.78 213.681 118.051C212.504 116.321 211.808 114.197 211.591 111.679C211.368 109.096 211.716 106.786 212.632 104.748C213.578 102.675 214.977 101.013 216.828 99.7615C218.677 98.4782 220.892 97.7255 223.475 97.5032C225.579 97.3221 227.48 97.576 229.177 98.265C230.875 98.9539 232.293 100.133 233.432 101.801L228.605 106.167C228.015 105.286 227.352 104.669 226.615 104.315C225.909 103.958 225.047 103.824 224.027 103.911C222.464 104.046 221.225 104.763 220.309 106.062C219.391 107.33 219.015 108.936 219.182 110.881C219.344 112.762 219.915 114.174 220.896 115.117C221.908 116.058 223.275 116.454 224.997 116.306C225.922 116.226 226.749 115.946 227.478 115.466C228.237 114.951 228.847 114.208 229.31 113.237L234.677 116.822C233.752 118.764 232.43 120.195 230.71 121.114C229.023 122.03 227.127 122.578 225.023 122.759ZM246.456 95.5251C250.25 95.1985 253.308 96.0273 255.631 98.0114C257.985 99.9928 259.322 102.833 259.64 106.531C259.857 109.05 259.508 111.344 258.595 113.414C257.681 115.484 256.285 117.178 254.407 118.496C252.529 119.814 250.251 120.588 247.573 120.818C243.811 121.142 240.753 120.314 238.398 118.332C236.075 116.348 234.756 113.523 234.441 109.856C234.221 107.306 234.568 104.995 235.482 102.925C236.396 100.855 237.792 99.1615 239.67 97.8436C241.548 96.5257 243.81 95.7529 246.456 95.5251ZM247.36 114.429C248.986 114.289 250.225 113.572 251.078 112.278C251.959 110.95 252.31 109.25 252.132 107.177C251.978 105.392 251.429 104.042 250.483 103.128C249.534 102.182 248.31 101.773 246.812 101.902C245.154 102.045 243.885 102.78 243.003 104.109C242.151 105.403 241.814 107.086 241.992 109.158C242.146 110.943 242.681 112.311 243.598 113.26C244.544 114.174 245.798 114.564 247.36 114.429ZM279.345 93.0796L286.614 92.454L279.766 117.566L269.341 118.463L259.594 94.7797L267.532 94.0964L274.465 111.952L279.345 93.0796ZM301.915 116.141C299.205 116.374 296.819 116.082 294.757 115.264C292.693 114.414 291.04 113.127 289.8 111.403C288.557 109.647 287.827 107.509 287.61 104.991C287.39 102.44 287.739 100.146 288.655 98.1077C289.604 96.0669 290.956 94.4248 292.712 93.1817C294.5 91.9358 296.573 91.2113 298.932 91.0082C301.611 90.7777 303.847 91.1955 305.641 92.2616C307.435 93.3276 308.747 94.9491 309.576 97.126C310.435 99.2682 310.8 101.822 310.669 104.788L295.223 106.118C295.518 107.313 296.244 108.278 297.399 109.014C298.551 109.718 300.068 109.989 301.949 109.827C302.81 109.753 303.704 109.499 304.63 109.066C305.554 108.601 306.318 107.973 306.925 107.182L311.36 111.137C310.418 112.502 309.199 113.635 307.702 114.535C306.235 115.4 304.306 115.935 301.915 116.141ZM299.533 96.3043C298.258 96.414 297.206 96.8899 296.38 97.7319C295.585 98.5712 295.103 99.6886 294.934 101.084L304.068 100.298C303.971 98.7968 303.51 97.7285 302.684 97.0929C301.89 96.4546 300.84 96.1917 299.533 96.3043ZM331.228 95.7441C330.568 95.544 329.696 95.4905 328.612 95.5838C326.954 95.7265 325.682 96.4302 324.795 97.6949C323.906 98.9278 323.35 100.871 323.129 103.523C322.905 106.144 322.975 109.575 323.34 113.815L316.071 114.441L314.713 98.6591L313.88 90.107L321.197 89.4772L321.385 95.5796C322.046 93.1781 323.051 91.4214 324.4 90.3096C325.782 89.195 327.302 88.5664 328.959 88.4237C329.501 88.377 329.998 88.3664 330.45 88.3917C330.934 88.4143 331.422 88.4847 331.914 88.603L331.228 95.7441Z" fill="#4D678C"/>
<defs>
<filter id="filter0_d_1911_519" x="0.0273438" y="0.529297" width="464.473" height="212.304" filterUnits="userSpaceOnUse" color-interpolation-filters="sRGB">
<feFlood flood-opacity="0" result="BackgroundImageFix"/>
<feColorMatrix in="SourceAlpha" type="matrix" values="0 0 0 0 0 0 0 0 0 0 0 0 0 0 0 0 0 0 127 0" result="hardAlpha"/>
<feOffset dy="4"/>
<feGaussianBlur stdDeviation="22.5"/>
<feComposite in2="hardAlpha" operator="out"/>
<feColorMatrix type="matrix" values="0 0 0 0 0 0 0 0 0 0 0 0 0 0 0 0 0 0 0.25 0"/>
<feBlend mode="normal" in2="BackgroundImageFix" result="effect1_dropShadow_1911_519"/>
<feBlend mode="normal" in="SourceGraphic" in2="effect1_dropShadow_1911_519" result="shape"/>
</filter>
</defs>
</svg>
