<svg width="16" height="16" viewBox="0 0 16 16" fill="none" xmlns="http://www.w3.org/2000/svg">
<path d="M0.215393 7.99999C0.215393 12.2994 3.70065 15.7845 8.0002 15.7845C12.2996 15.7845 15.7852 12.2994 15.7852 7.99999C15.7852 3.70044 12.2996 0.215187 8.0002 0.215187C3.70065 0.215187 0.215393 3.70044 0.215393 7.99999Z" fill="#636930"/>
<path d="M7.09107 0.260009L6.98328 0.444709L6.84476 0.629407V0.844993L6.96784 0.906611L6.73696 1.02969H6.41374L6.22904 0.906611L6.13669 0.814106L5.93655 0.737356L5.64421 0.875724L5.72112 1.02969H5.95184V1.2913L5.78243 1.39909L5.567 1.62996H5.93655L6.18287 1.78393H6.42903L6.45991 1.95334H6.72168L6.96784 2.1226L6.87549 2.35347H6.6755L6.45991 2.50744L6.3983 2.24568L6.2136 2.3073L5.85949 2.50744H6.2136L6.01346 2.67669H6.32903V2.86139L6.10596 2.96934V3.16933H5.87493L5.7517 3.26168V3.43093H5.93655L5.7517 3.66196H5.567V3.83122H5.45936L5.35172 4.07753V4.23135V4.47782H5.2745V4.57017V4.75487H5.15142L4.95128 4.9703V5.06265V5.27808V5.50911L5.08996 5.64763L5.12069 5.84762L5.13598 6.07865H4.95128V5.94012L4.72056 5.80144V5.58617L4.53571 5.55528L4.42807 5.60146L4.22793 5.58617L4.12029 5.66307V5.8785H3.88926L3.70456 5.86306L3.45825 5.94012L3.30444 6.07865V6.20173L3.15031 6.40187L3.24282 6.58657L3.15031 6.80215V6.95596V7.09464H3.25811L3.27355 7.24846L3.48913 7.37169L3.53515 7.4486L3.72001 7.35625L3.91999 7.20228V7.01758L4.12029 6.8945L4.28955 6.78671H4.53571L4.52042 6.92523L4.4588 7.04831L4.48969 7.20228L4.36645 7.4486L4.42807 7.6333L4.58204 7.55639L4.88982 7.49477L5.12069 7.6333V7.80271V7.94123L5.45936 8.32607L5.35172 8.60297L4.98201 8.41827L4.85893 8.21828L4.75114 8.12593L4.62806 8.06431L4.41263 8.12593H4.07396L3.96617 7.94123L3.76618 7.97196L3.61222 7.94123L3.51987 8.03358H3.22737L2.95033 7.95652L2.70401 7.87962L2.33446 7.86417V7.61785L2.21138 7.32536V7.09464L2.07285 6.86362L1.9036 6.64819V6.32496L1.70345 5.90923V6.32496V6.58657L1.93433 6.94068L1.9036 7.24846L1.70345 6.84817L1.5342 6.46349V6.0632V5.61674L1.44185 5.09338L1.67272 4.43149L1.93433 3.83122L2.1652 3.38476L2.41152 2.78449L3.58133 1.66069L4.16631 1.2913L4.36645 1.36836L4.41263 1.61468L4.67439 1.52233L4.53571 1.33763L4.58204 1.04514L4.93599 0.96823L5.04379 1.1066L4.81291 1.30674L5.04379 1.35291L5.21304 1.33763L5.15142 1.53761L4.98201 1.66069V1.83011H4.73585L4.53571 1.87628L4.38174 2.15348L4.26646 2.44582L4.42807 2.3842L4.62806 2.46126L4.76674 2.78449L4.85893 2.32274L5.02834 2.13804L4.93599 1.90717L5.16687 1.76864L5.36685 1.56834L5.44392 1.22983L5.12069 1.16822L5.08996 0.798818L5.4748 0.875724L5.92111 0.460152L6.72168 0.260009H7.09107Z" fill="white"/>
<path d="M4.7359 6.63275V6.49423V6.27864H4.90531H5.41323L5.70573 6.20174H6.04424V6.49423L5.84409 6.52511L5.59778 6.63275L5.38999 6.41732L4.90531 6.49423L4.7359 6.63275Z" fill="white"/>
<path d="M6.38301 6.30949L6.22904 6.41728L6.30595 6.52508L6.22904 6.72522L6.56771 6.63271L6.98328 6.41728L7.09107 6.30949L6.8602 6.2017L6.583 6.32493L6.38301 6.30949Z" fill="white"/>
<path d="M12.8296 1.90712V2.55372H13.2297L13.5801 3.26179H13.9378L14.1533 3.75427L14.2887 4.03132H14.1226L14.0301 4.4316L13.8147 4.18528L13.7839 3.90823L13.4291 3.50795L13.1373 3.16944L12.8859 2.76713L12.8296 2.67681L12.6449 2.77929L12.9118 3.16944L12.6449 3.29252L12.7885 3.68251L12.7678 3.92883H13.0144L13.1169 3.82602V3.62089L13.3016 3.86721L13.2813 4.13396L13.467 4.19542L13.3632 4.4316L13.7326 4.52395H14.0816L14.0201 4.74968H13.7738V4.85232H13.3838L13.589 5.05745L13.8761 5.20128L13.8559 5.42685L13.9583 5.67332L13.8969 6.0017H13.6914L13.467 5.89905L12.9734 5.77597L13.1169 6.0017L12.9526 6.33022V6.49417L12.8912 6.69962L12.9734 6.98681L12.9118 7.29474L12.9734 7.45885H13.199L13.3016 7.78722H13.467H13.8969L14.102 7.66414L14.1432 7.1921L14.2887 6.84314L14.5332 6.74049V6.41212L14.6973 6.57638L14.9026 6.39168L15.1692 6.88416L15.2514 7.33577L15.5798 7.78722L15.3746 8.17721L15.3336 8.36191L15.7851 8.69028L15.4157 8.89557H14.9438L14.6151 8.52617V8.30045L14.5947 8.03354L14.215 8.07457L13.7944 8.15678L13.5478 8.09516L13.2813 8.40294L12.5628 8.89557L13.2196 9.67539L13.9378 10.8864L14.5947 11.9536L15.1488 10.948L15.4363 10.086L15.272 9.47026L15.4157 9.16248L15.6414 9.10086L15.7851 7.99251L15.621 7.29474L15.3132 6.93034L15.0667 6.1658L15.621 6.93034L15.5386 5.89905L14.882 4.48292L14.3073 3.29252L13.199 2.2252L12.8296 1.90712Z" fill="white"/>
<path d="M14.9845 6.93037V7.19214V7.76667L15.0872 7.84888V7.38963V7.08949L14.9845 6.93037Z" fill="white"/>
<path d="M0.511978 10.558L1.95775 9.61408L2.81057 9.08026L3.3851 8.64925L3.95995 8.77248L4.26788 8.85454L4.94506 8.46455L5.58137 7.99999L6.1559 7.84883L6.85382 7.13047L7.14101 6.93033L7.85984 6.22741L8.3726 5.79655L8.73092 5.44744H8.98831L9.78872 5.91963L10.2052 6.10433H10.6921L10.9793 6.49417L11.5128 7.06885L11.7181 7.38958L12.1283 7.84883L12.4559 8.19779L12.7239 8.89556L13.3395 9.32658L13.914 10.086L14.3883 11.2147L14.7967 11.9535L13.0317 14.0267L11.6973 14.8888L9.99401 15.5452L7.69854 15.7845L5.7096 15.4223L3.50834 14.437L1.95775 12.8978L0.793238 11.0302L0.511978 10.558Z" fill="white"/>
<mask id="mask0_21_28" style="mask-type:luminance" maskUnits="userSpaceOnUse" x="0" y="5" width="15" height="11">
<path d="M0.511978 5.44744H14.7967V15.7845H0.511978V5.44744Z" fill="white"/>
</mask>
<g mask="url(#mask0_21_28)">
<g opacity="0.529999">
<path d="M0.511932 10.5578L1.9577 9.6139L2.81053 9.08008L3.38506 8.64906L3.9599 8.7723L4.26784 8.85435L4.94502 8.46436L5.58132 7.99981L6.15585 7.84865L6.85378 7.13029L7.14096 6.93015L7.85979 6.22723L8.37255 5.79637L8.73087 5.44725H8.98827L9.78868 5.91945L10.2052 6.10415H10.692L10.9792 6.49398L11.5127 7.06867L11.718 7.3894L12.1283 7.84865L12.4559 8.19761L12.7239 8.89538L13.3395 9.3264L13.914 10.0858L14.3882 11.2146L14.7966 11.9534L13.0317 14.0265L11.6973 14.8886L9.99397 15.545L7.69849 15.7843L5.70955 15.4221L3.5083 14.4368L1.9577 12.8976L0.793192 11.03L0.511932 10.5578Z" fill="#636930"/>
</g>
</g>
<path d="M0.624725 10.7017H1.01471L1.22328 11.1736L1.34308 11.5023L1.52794 11.7895H1.69189L1.85631 12.0767L2.10247 12.5079L2.71273 12.6309H3.06637H3.45714L3.53903 13.0825L3.23126 13.3287L2.71273 13.1033L2.80024 13.7189H3.27244H3.7451L4.13431 13.575L4.31901 13.5342V13.144L4.13431 12.754L4.15475 12.2104H3.7451L3.35434 12.3027L3.06637 12.0973L2.71273 11.8101V11.687L3.06637 11.5227L3.37508 11.7279L3.7451 11.7486L4.15475 11.5227H4.31901L5.09915 11.4405L4.99635 11.687L5.28369 12.2104H5.72001L5.8994 12.0564H6.26911L6.43291 11.8101L6.66207 12.0767L6.84349 12.3436L7.13099 12.5283H7.33597L7.32661 12.1385V11.9534L7.06937 11.5638L7.04878 11.1944L6.76144 10.7838H6.35101L6.20734 10.476L5.72001 10.2913L5.44795 10.6161L5.40677 10.476L5.59162 9.96295H5.30428L5.20382 9.79868H4.91445L4.42369 9.36767L3.98035 9.24459H3.60065H3.23126V8.91606L3.38507 8.64931L3.93417 8.73386L4.51915 8.9418L4.8937 9.28546L5.20382 9.34708L5.72001 9.75766L6.24837 10.045L6.86408 10.6161L7.33597 10.8042L7.70895 11.0713L7.95184 11.256L8.48565 11.6046L8.85848 11.7074L9.14255 11.7895L8.74118 11.0713V10.7634L8.22514 10.2297V9.77825L7.99286 9.47016L7.70895 9.51134V9.16238L7.80832 8.93665L7.70895 8.60298L7.82876 8.42358L7.86978 8.00005L8.13654 7.9999L8.22514 7.74625H8.54712L9.03959 7.84874L9.24488 8.11565L9.53691 8.60298H9.79914L10.1275 8.89547L10.3532 9.30605L10.5932 9.44972V8.83401V8.34137L10.3326 8.00005L10.2155 7.84874V7.62301H10.1275H9.67574H9.24488L8.85848 7.17156L8.74118 6.84319H9.03959H9.53691H9.88135L10.1275 7.06891L10.4762 7.38964L10.7022 7.15112V6.93039L10.8452 6.7251H10.3532L10.2155 6.33012L9.53691 6.4635L9.24488 6.20174L8.85848 5.87851L8.74118 5.79662L8.62402 5.55155L8.73088 5.4475H9.04474L10.2052 6.10439L10.5687 5.98615L11.5127 7.06891L11.6257 7.70522L11.8722 7.9999L11.5847 8.00005L11.8722 8.25932V8.42358L12.2414 8.60298L12.0771 8.87519L12.3646 9.12135L12.2002 9.30605L11.9541 9.51134L11.9336 9.12135L11.79 8.91606L11.6054 8.79298L11.6667 9.30605L11.79 9.65501L11.9748 9.96295V10.1271L12.221 10.4965L12.2414 10.7428L12.5492 11.1944L12.8368 11.1329L12.9802 10.8248L13.083 10.6161V10.2297L12.7957 10.3323L12.6108 10.1271L12.4664 9.96295L12.6929 9.83971L13.0008 9.81912L13.247 9.92176V10.2501L13.5385 10.3323L13.6897 10.6161V10.866L13.9244 11.0505L14.0271 11.3997L14.3987 11.5844L14.6838 12.1589L13.1856 13.8421L12.8932 14.1444L11.3945 13.3287L11.3778 13.2431L11.2973 12.8362L11.0973 12.426V12.0357L10.9485 11.7691L10.8452 11.4816L11.6054 11.3379V11.1122L11.3945 10.8042V10.6161H11.01H10.8452L10.4969 10.3323L10.4762 10.0244L10.2155 9.79868L10.1275 9.57296L9.77855 9.34708L9.65547 9.10076L9.67574 9.57296L9.88135 9.92176L9.75811 10.1476V10.4965L9.92222 10.7634L9.94281 11.1329L10.2155 11.3997L10.5932 11.9534V12.2411L10.8452 12.6926L11.2151 13.3083L11.3945 13.4727L11.8516 13.2671L12.4664 13.5134L13.0008 14.006L12.221 14.5399L10.8452 15.2375L9.53691 15.648L7.65435 15.7845L5.99753 15.5452L3.84697 14.6425L2.71273 13.9036L1.63043 12.7336L0.932661 11.4816L0.624725 10.7017Z" fill="white"/>
<path d="M7.99994 0.404341C3.80506 0.404341 0.404668 3.80504 0.404668 7.99992C0.404668 12.195 3.80506 15.5955 7.99994 15.5955C12.1945 15.5955 15.5954 12.195 15.5954 7.99992C15.5954 3.80504 12.1945 0.404341 7.99994 0.404341ZM16 7.99992C16 12.4182 12.4182 16 7.99994 16C3.58199 16 1.52588e-05 12.4182 1.52588e-05 7.99992C1.52588e-05 3.5815 3.58199 -1.42844e-07 7.99994 -1.42844e-07C12.4182 -1.42844e-07 16 3.5815 16 7.99992Z" fill="#563E28"/>
<mask id="mask1_21_28" style="mask-type:luminance" maskUnits="userSpaceOnUse" x="0" y="0" width="16" height="8">
<path d="M0.993912 0.993614H15.0063V8H0.993912V0.993614Z" fill="white"/>
</mask>
<g mask="url(#mask1_21_28)">
<g opacity="0.460007">
<mask id="mask2_21_28" style="mask-type:luminance" maskUnits="userSpaceOnUse" x="0" y="0" width="16" height="8">
<path d="M0.993637 8C0.993637 4.13037 4.13055 0.993614 8.00002 0.993614C11.8695 0.993614 15.0061 4.13037 15.0061 8" fill="white"/>
</mask>
<g mask="url(#mask2_21_28)">
<mask id="mask3_21_28" style="mask-type:luminance" maskUnits="userSpaceOnUse" x="-5121" y="-5084" width="10224" height="10224">
<path d="M-5120.51 -5083.92H5102.66V5139.1H-5120.51V-5083.92Z" fill="url(#paint0_linear_21_28)"/>
</mask>
<g mask="url(#mask3_21_28)">
<path d="M0.991211 8.00244C0.991211 4.13281 4.12813 0.996055 7.9976 0.996055C11.8671 0.996055 15.0037 4.13281 15.0037 8.00244" fill="url(#paint1_linear_21_28)"/>
</g>
</g>
</g>
</g>
<defs>
<linearGradient id="paint0_linear_21_28" x1="7.78333" y1="9.07681" x2="9.051" y2="1.07311" gradientUnits="userSpaceOnUse">
<stop stop-color="white" stop-opacity="0"/>
<stop offset="0.141098" stop-color="white" stop-opacity="0"/>
<stop offset="0.793124" stop-color="white" stop-opacity="0"/>
<stop offset="0.957062" stop-color="white"/>
<stop offset="1" stop-color="white"/>
</linearGradient>
<linearGradient id="paint1_linear_21_28" x1="7.78287" y1="9.07812" x2="9.05053" y2="1.07441" gradientUnits="userSpaceOnUse">
<stop stop-color="white"/>
<stop offset="0.141098" stop-color="white"/>
<stop offset="0.793124" stop-color="white"/>
<stop offset="0.957062" stop-color="white"/>
<stop offset="1" stop-color="white"/>
</linearGradient>
</defs>
</svg>
