<svg width="20" height="16" viewBox="0 0 20 16" fill="none" xmlns="http://www.w3.org/2000/svg">
<path d="M4.29243 0.293C4.47996 0.105529 4.73427 0.000213623 4.99943 0.000213623C5.2646 0.000213623 5.5189 0.105529 5.70643 0.293L9.70643 4.293C9.88859 4.4816 9.98938 4.7342 9.9871 4.9964C9.98483 5.2586 9.87966 5.50941 9.69425 5.69482C9.50884 5.88023 9.25803 5.9854 8.99583 5.98767C8.73363 5.98995 8.48103 5.88916 8.29243 5.707L5.99943 3.414V15C5.99943 15.2652 5.89407 15.5196 5.70654 15.7071C5.519 15.8946 5.26465 16 4.99943 16C4.73421 16 4.47986 15.8946 4.29232 15.7071C4.10479 15.5196 3.99943 15.2652 3.99943 15V3.414L1.70643 5.707C1.51783 5.88916 1.26523 5.98995 1.00303 5.98767C0.740832 5.9854 0.49002 5.88023 0.304612 5.69482C0.119204 5.50941 0.014035 5.2586 0.0117566 4.9964C0.00947813 4.7342 0.110272 4.4816 0.292431 4.293L4.29243 0.293ZM13.9994 12.586V1C13.9994 0.734784 14.1048 0.48043 14.2923 0.292893C14.4799 0.105357 14.7342 0 14.9994 0C15.2646 0 15.519 0.105357 15.7065 0.292893C15.8941 0.48043 15.9994 0.734784 15.9994 1V12.586L18.2924 10.293C18.481 10.1108 18.7336 10.01 18.9958 10.0123C19.258 10.0146 19.5088 10.1198 19.6942 10.3052C19.8797 10.4906 19.9848 10.7414 19.9871 11.0036C19.9894 11.2658 19.8886 11.5184 19.7064 11.707L15.7064 15.707C15.5189 15.8945 15.2646 15.9998 14.9994 15.9998C14.7343 15.9998 14.48 15.8945 14.2924 15.707L10.2924 11.707C10.1103 11.5184 10.0095 11.2658 10.0118 11.0036C10.014 10.7414 10.1192 10.4906 10.3046 10.3052C10.49 10.1198 10.7408 10.0146 11.003 10.0123C11.2652 10.01 11.5178 10.1108 11.7064 10.293L13.9994 12.586Z" fill="#26201B"/>
</svg>
