<svg width="1894" height="189" viewBox="0 0 1894 189" fill="none" xmlns="http://www.w3.org/2000/svg">
<g filter="url(#filter0_d_0_53)">
<path d="M1063.22 -136.942C1060.06 -136.288 898.999 -133.829 864.885 -133.872C830.067 -133.98 767.824 -133.054 759.037 -132.36C754.116 -131.904 746.381 -131.569 741.458 -131.535C736.886 -131.503 730.206 -131.175 726.692 -130.799C717.555 -129.752 674.661 -128.118 645.825 -127.635C631.407 -127.464 614.882 -126.928 608.906 -126.535C602.578 -126.139 587.457 -125.823 574.797 -125.805C562.136 -125.787 548.774 -125.483 544.907 -125.175C535.768 -124.478 488.299 -123.234 457.001 -122.875C443.638 -122.711 388.779 -122.047 335.327 -121.393C267.457 -120.498 235.805 -120.347 230.878 -120.875C225.599 -121.4 219.269 -121.285 206.614 -120.494C197.475 -119.869 180.249 -118.765 168.649 -118.051C157.048 -117.338 140.528 -116.029 131.742 -115.124C123.307 -114.222 114.52 -113.458 112.762 -113.446C106.784 -113.404 106.447 -111.224 111.73 -110.137C115.956 -109.323 116.311 -108.904 112.101 -107.4C109.646 -106.469 108.601 -104.987 109.662 -104.151C110.723 -103.315 108.976 -101.617 106.171 -100.474C103.014 -99.1869 102.318 -98.1282 104.079 -97.8595C105.838 -97.6611 107.254 -96.4766 107.262 -95.2824C107.271 -94.0179 108.692 -91.9905 110.458 -90.8085C113.284 -89.0016 112.586 -88.224 106.97 -86.7797C102.406 -85.5535 101.707 -84.9164 104.522 -84.7955C107.336 -84.6044 106.289 -83.5433 101.029 -81.3287C96.821 -79.543 92.6176 -77.1251 91.9226 -75.9259C91.5793 -74.7292 88.426 -73.0211 84.9156 -72.0833C81.757 -71.148 79.31 -69.0233 79.3217 -67.3373C79.333 -65.7215 77.2377 -63.5993 74.4302 -62.7367C71.6227 -61.874 68.4724 -59.7444 67.0779 -57.9784C63.9496 -52.6875 63.2497 -52.1909 57.9805 -51.3111C51.3061 -50.2107 49.9308 -45.7049 52.4793 -33.2878C52.8403 -31.9555 51.798 -30.1217 50.3967 -29.3391C48.295 -28.1301 49.353 -27.716 55.3334 -27.4767C59.2033 -27.293 62.0201 -26.8209 60.967 -26.5325C58.1595 -25.6699 65.5736 -21.5767 73.6778 -19.3852C80.7255 -17.397 81.443 -15.3647 75.4837 -12.5832C73.381 -11.5147 70.9311 -9.81155 70.5863 -8.82559C69.8893 -7.90743 62.1677 -5.67567 53.3877 -3.9283C36.1797 -0.365758 35.8295 -0.152553 41.8393 4.30169C45.3742 6.8764 45.0289 7.7921 41.1708 9.29435C37.3127 10.7966 37.3161 11.2884 40.4841 11.6878C42.9478 11.9516 45.0637 12.7798 45.0691 13.5526C44.7224 14.2575 44.7341 15.9435 44.7435 17.2783C44.4006 18.5452 46.1693 20.0082 47.9301 20.3472C50.0431 20.7539 51.8083 21.7252 51.8142 22.5681C51.8196 23.3409 55.7007 25.1404 60.9861 26.5788C69.0913 28.9108 69.4454 29.2596 64.5289 30.2775C56.8028 31.877 57.5116 32.6448 67.3619 33.0678C73.6939 33.3047 76.1606 33.99 77.9341 36.1554C78.9994 37.6233 81.8217 38.8682 83.9317 38.8534C86.0417 38.8387 86.3963 39.2578 84.2912 39.975C82.5378 40.6898 82.1969 42.2377 83.9655 43.7007C86.0883 45.5124 85.3918 46.5009 81.5293 47.3709C78.7204 48.0227 75.2154 49.7333 74.1702 51.1457C72.427 53.3357 73.1328 53.682 79.4629 53.6378C87.5514 53.5814 102.713 59.166 106.614 63.7755C108.741 66.2195 107.691 66.9294 100.667 68.3835C90.1313 70.4944 83.117 73.2832 85.2349 74.3925C86.2933 74.8769 84.5404 75.6619 81.7299 76.103C78.92 76.6144 76.8148 77.3317 76.8173 77.6829C76.8197 78.0342 73.3113 79.2529 69.4508 80.404C65.2386 81.5574 62.0858 83.3357 62.4453 84.4573C62.8043 85.5086 63.1687 87.3326 63.1761 88.3864C63.1839 89.5104 65.3053 91.1114 68.1245 91.9347C76.5818 94.3346 78.3691 98.467 72.0523 100.408C64.3321 102.85 65.0399 103.478 76.6549 104.802C84.7503 105.729 86.1604 106.211 83.7056 107.211C81.2492 108.001 81.9599 109.05 85.4865 110.431C88.3072 111.465 90.0734 112.576 89.0199 112.795C87.9663 113.013 89.734 114.335 92.5572 115.721C95.7321 117.103 97.1491 118.569 96.4482 118.925C95.3951 119.213 93.6578 122.246 92.6259 125.556C91.2584 131.185 91.6145 131.815 100.781 134.983C106.069 136.913 112.762 138.412 115.224 138.395C118.037 138.375 118.744 138.932 117.346 140.136C114.898 142.05 122.663 146.141 128.289 145.891C130.046 145.808 136.379 146.115 142.361 146.565C151.158 147.277 156.432 147.029 184.552 144.866C227.435 141.545 254.51 140.794 474.292 137.293C542.512 136.255 560.799 136.127 562.914 136.815C564.324 137.297 566.787 137.42 568.192 137.199C569.245 136.911 574.874 137.082 580.504 137.605C587.191 138.261 601.964 138.509 626.581 138.337C646.627 138.268 669.84 138.457 678.634 138.747C687.429 139.107 705.72 139.541 719.086 139.799C732.803 139.984 749.335 140.431 756.02 140.806C768.334 141.493 931.514 140.915 1025.06 139.841C1086.6 139.2 1182.96 139.792 1201.96 140.994C1214.98 141.817 1225.18 141.816 1273.36 140.777C1320.83 139.813 1334.9 139.785 1360.22 140.451C1414.39 141.97 1622.94 141.989 1717.19 140.488C1746.02 140.006 1748.84 140.127 1754.83 141.561C1762.93 143.401 1780.16 144.123 1785.43 142.752C1790.35 141.523 1796.99 135.716 1796.97 132.836C1796.96 131.571 1799.76 129.515 1803.27 128.225C1823.96 120.494 1830.28 118.693 1841.17 117.563C1855.93 116.055 1859.78 113.499 1852.03 110.813C1848.86 109.782 1847.09 108.74 1848.5 108.45C1849.55 108.231 1847.78 107.401 1844.26 106.653C1838.63 105.498 1837.92 104.238 1838.58 99.2453C1838.91 95.9411 1840.65 92.5569 1842.05 91.704C1843.8 90.7785 1844.49 89.1578 1843.78 88.0388C1843.07 86.8494 1842.7 84.3229 1843.04 82.4237C1844.71 69.9772 1844.35 69.2069 1829.55 64.1818C1811.92 58.0523 1807.68 55.904 1807.31 52.675C1806.95 51.2022 1804.83 49.8119 1802.01 49.5506C1796.38 48.9576 1791.74 38.8735 1797.37 38.8343C1799.48 38.8195 1799.47 38.4683 1797.01 37.9235C1793.49 37.105 1796.95 29.8447 1801.51 28.2673C1802.92 27.836 1804.65 24.8732 1805.69 21.7046C1806.37 18.5385 1808.09 13.5385 1809.13 10.6509C1812.23 1.28553 1812.56 -2.01865 1810.45 -2.00392C1809.39 -1.99655 1808.32 -3.81568 1807.96 -6.06122C1807.58 -9.64152 1805.09 -12.8558 1801.56 -14.9388C1797.68 -17.1597 1806.05 -26.7024 1815.52 -30.5622C1823.59 -33.9906 1825.68 -35.8319 1826.35 -40.403C1827.04 -43.4989 1829.45 -50.6113 1831.87 -56.2485C1836.37 -66.6071 1834.56 -73.9711 1826.81 -76.3758C1823.63 -77.4075 1824.33 -78.2554 1829.94 -80.5427C1835.91 -82.9027 1836.25 -83.8184 1833.42 -86.8195C1831.64 -88.7742 1829.51 -92.5529 1829.14 -95.22C1828.41 -97.9548 1826.98 -102.511 1825.55 -105.452C1823.41 -110.284 1824.1 -110.851 1830.78 -112.162C1834.99 -112.894 1840.26 -114.336 1842.71 -115.337C1848.67 -117.767 1846.52 -124.567 1839.48 -125.571C1836.31 -125.971 1833.84 -126.656 1833.84 -127.078C1833.83 -128.483 1808.85 -129.292 1751.17 -129.732C1745.55 -129.763 1734.29 -130.106 1726.55 -130.473C1706.5 -131.528 1675.54 -131.944 1636.16 -131.669C1611.19 -131.495 1602.75 -131.646 1603.8 -132.286C1605.55 -133.212 1584.44 -134.188 1540.82 -135.078C1513.74 -135.592 1487.72 -135.059 1479.99 -133.81C1477.53 -133.372 1474.72 -133.493 1472.25 -133.967C1469.79 -134.582 1455.01 -134.83 1426.88 -134.774C1404.02 -134.755 1375.88 -134.98 1364.27 -135.321C1341.41 -136.004 1325.23 -135.891 1297.46 -134.995C1283.39 -134.545 1278.47 -134.652 1274.94 -135.54C1272.13 -136.223 1264.39 -136.591 1255.59 -136.599C1247.86 -136.616 1237.3 -136.753 1232.38 -136.999C1227.45 -137.246 1216.55 -137.029 1207.76 -136.547C1195.46 -135.828 1189.13 -135.784 1179.63 -136.42C1162.74 -137.497 1147.97 -137.394 1140.95 -136.08C1135.68 -135.13 1134.27 -135.12 1127.58 -136.338C1119.13 -137.825 1110.69 -138.047 1108.59 -136.767C1107.53 -136.198 1104.72 -136.108 1100.15 -136.498C1093.11 -137.081 1065.32 -137.449 1063.22 -136.942Z" fill="white"/>
</g>
<defs>
<filter id="filter0_d_0_53" x="0.186462" y="-171.604" width="1893.76" height="360.526" filterUnits="userSpaceOnUse" color-interpolation-filters="sRGB">
<feFlood flood-opacity="0" result="BackgroundImageFix"/>
<feColorMatrix in="SourceAlpha" type="matrix" values="0 0 0 0 0 0 0 0 0 0 0 0 0 0 0 0 0 0 127 0" result="hardAlpha"/>
<feOffset dy="4"/>
<feGaussianBlur stdDeviation="19"/>
<feComposite in2="hardAlpha" operator="out"/>
<feColorMatrix type="matrix" values="0 0 0 0 0 0 0 0 0 0 0 0 0 0 0 0 0 0 0.25 0"/>
<feBlend mode="normal" in2="BackgroundImageFix" result="effect1_dropShadow_0_53"/>
<feBlend mode="normal" in="SourceGraphic" in2="effect1_dropShadow_0_53" result="shape"/>
</filter>
</defs>
</svg>
