<svg width="40" height="40" viewBox="0 0 40 40" fill="none" xmlns="http://www.w3.org/2000/svg">
<path d="M34.2864 3.33301H5.7075C4.39797 3.33301 3.33398 4.41188 3.33398 5.73628V34.2631C3.33398 35.5875 4.39797 36.6663 5.7075 36.6663H34.2864C35.5959 36.6663 36.6673 35.5875 36.6673 34.2631V5.73628C36.6673 4.41188 35.5959 3.33301 34.2864 3.33301ZM13.4084 31.9044H8.46791V15.9967H13.4158V31.9044H13.4084ZM10.9382 13.8241C9.35333 13.8241 8.07357 12.5369 8.07357 10.9595C8.07357 9.38211 9.35333 8.09491 10.9382 8.09491C12.5155 8.09491 13.8027 9.38211 13.8027 10.9595C13.8027 12.5443 12.523 13.8241 10.9382 13.8241ZM31.9277 31.9044H26.9873V24.1663C26.9873 22.3211 26.9501 19.9476 24.4203 19.9476C21.8459 19.9476 21.4515 21.9565 21.4515 24.0324V31.9044H16.5111V15.9967H21.2507V18.1693H21.3176C21.9798 16.9193 23.5944 15.6024 25.9977 15.6024C30.9977 15.6024 31.9277 18.8985 31.9277 23.1842V31.9044Z" fill="#494C21"/>
</svg>
