<svg width="180" height="180" viewBox="0 0 180 180" fill="none" xmlns="http://www.w3.org/2000/svg">
<path d="M97.6127 4.6008C97.4596 4.68021 97.3065 4.76624 97.1534 4.86034C97.3288 4.75226 97.5042 4.63683 97.6715 4.52139C97.6566 4.55006 97.6343 4.57213 97.6127 4.6008ZM62.7546 12.5464C62.8051 12.4883 62.8489 12.4243 62.8928 12.3729C62.9151 12.4163 62.9292 12.467 62.9508 12.5103C62.8861 12.525 62.82 12.5317 62.7546 12.5464ZM177.703 113.043C178.622 112.048 179.547 111.053 179.423 110.288C180.117 107.382 178.134 107.462 175.911 107.058C175.758 104.917 175.488 102.624 175.298 100.266C174.97 99.4153 174.635 98.564 174.613 98.0311C174.751 97.3893 175.677 97.2812 176.129 96.9562C175.247 96.1777 174.671 95.4065 174.154 94.6493C175.188 93.1856 176.18 91.6352 177.179 90.0994C176.137 90.1428 175.152 90.1428 174.263 90.0921C175.961 89.1048 177.653 88.1167 177.981 87.2301C180.772 83.855 177.907 83.7837 175.378 82.8243C173.884 82.6442 174.416 80.5895 172.368 80.7475C173.49 80.0918 174.059 79.7602 175.188 79.0971C174.831 78.2605 172.04 81.6349 172.003 79.9117C173.257 79.5294 174.146 78.3105 175.276 77.6547C174.226 76.8689 171.201 79.6874 170.72 78.57C171.165 77.965 174.708 77.9863 174.11 76.5947C173.986 76.3138 172.856 76.9696 172.295 77.3011C175.444 74.7634 176.544 72.3837 172.55 72.9681C173.658 72.3263 175.523 71.8933 176.551 71.0067C176.544 71.0001 176.537 70.992 176.53 70.992C175.932 71.3096 174.788 71.6632 174.249 71.9801L176.231 70.8193C176.019 70.7112 175.787 70.6105 175.553 70.5098C174.97 70.6612 174.402 70.8413 173.891 71.1434C174.328 70.8839 174.766 70.6318 175.203 70.3723C174.62 70.1709 173.993 70.0047 173.352 69.8893C171.288 70.0481 169.058 69.7812 168.205 70.2789C167.942 70.4157 167.681 70.5524 167.418 70.6899C167.913 69.5937 168.388 68.4469 168.868 67.3147C168.008 67.3008 167.178 67.2501 166.427 67.1567C167.681 66.3348 168.926 65.5055 169.051 64.7123C170.814 61.7489 168.409 61.5254 166.128 60.5087C164.852 60.2639 164.947 58.3966 163.255 58.4319C164.087 57.8842 164.502 57.61 165.34 57.0623C164.896 56.2764 163.131 59.2325 162.811 57.6467C163.788 57.3578 164.335 56.2837 165.166 55.7353C164.159 54.9568 162.097 57.3938 161.506 56.3411C161.776 55.8008 164.75 56.0095 164.006 54.6973C163.86 54.4304 163.029 54.9789 162.614 55.2523C164.816 53.0822 165.333 50.9406 162.089 51.2722C162.906 50.7392 164.393 50.4429 165.108 49.6718C165.1 49.6644 165.093 49.6644 165.085 49.657C164.641 49.9165 163.737 50.1908 163.343 50.4503C163.831 50.1261 164.32 49.8085 164.808 49.4843C164.604 49.3689 164.401 49.2681 164.188 49.1667C163.722 49.2681 163.278 49.4122 162.899 49.657C163.226 49.4483 163.547 49.2321 163.875 49.0152C163.343 48.7991 162.796 48.6117 162.235 48.4749C160.544 48.511 158.626 48.1434 158 48.5543C156.156 49.5923 154.326 50.6598 152.51 51.7412C151.861 51.8779 151.228 52.0007 150.637 52.0941C152.882 50.537 155.128 48.9792 155.638 47.8978C159.516 43.3847 155.908 44.0478 152.802 43.6295C150.936 43.8243 151.826 41.3726 149.209 42.0864C150.703 41.0484 151.454 40.5293 152.956 39.4979C152.584 38.6473 148.706 43.1678 148.844 41.2424C150.463 40.486 151.716 38.8848 153.21 37.8541C152.029 37.2704 148.21 40.8535 147.452 40.1765V39.9809C148.319 39.2024 152.438 38.3158 151.855 36.9602C151.731 36.6793 150.229 37.7174 149.478 38.2357C153.728 34.5591 155.368 31.5957 150.258 33.2976C151.723 32.2875 154.129 31.3215 155.521 30.0453C155.514 30.0379 155.507 30.0379 155.492 30.0379C154.705 30.5496 153.218 31.2495 152.504 31.7472C153.378 31.1414 154.261 30.5283 155.135 29.9233C154.872 29.8578 154.595 29.8005 154.311 29.7497C153.561 30.0747 152.824 30.4276 152.139 30.8966C152.722 30.4996 153.306 30.096 153.888 29.6924C153.167 29.613 152.394 29.591 151.585 29.6343C148.975 30.3408 146.176 30.6297 145.053 31.4083C144.755 31.5957 144.463 31.7832 144.164 31.9707C144.128 31.8839 144.091 31.7685 144.054 31.6104C144.361 31.8626 144.383 31.2715 144.594 31.2428C144.106 30.1247 143.756 31.0554 143.37 29.9233C143.384 29.627 144.492 31.2568 144.011 29.8439C143.916 29.5557 143.705 29.5844 143.595 29.5983C144.048 28.9492 143.887 27.4928 142.772 26.1593C142.976 26.1306 143.465 26.6283 143.603 26.3607C143.595 26.3541 143.595 26.3467 143.588 26.3394C143.472 26.332 143.202 26.1159 143.093 26.1159C143.217 26.1012 143.341 26.0799 143.465 26.0652C143.37 25.8784 143.282 25.6902 143.187 25.5035C143.041 25.366 142.91 25.2653 142.815 25.2653C142.888 25.2579 142.976 25.2433 143.049 25.2366C142.823 24.7963 142.597 24.378 142.371 23.9891C141.918 23.3907 141.387 22.5541 141.081 22.1718C142.189 21.6167 143.311 21.033 144.135 20.3479C144.128 20.3405 144.12 20.3405 144.106 20.3405C143.319 20.8088 141.889 21.4292 141.096 21.9049C141.978 21.3425 142.867 20.7801 143.748 20.2177C143.487 20.1383 143.202 20.081 142.91 20.0229C142.123 20.3332 141.343 20.6721 140.615 21.1337C141.234 20.7368 141.86 20.3405 142.48 19.9516C141.751 19.8501 140.957 19.8141 140.126 19.8354C138.019 20.3478 135.817 20.6 134.367 21.033L134.082 20.8169C133.879 20.7588 133.704 20.7228 133.609 20.7801L133.842 20.6287C133.441 20.3331 133.048 20.0589 132.676 19.8002C132.093 19.5039 131.393 19.0643 130.926 18.8047C130.788 18.6533 130.649 18.4945 130.504 18.3357C130.854 18.149 131.233 17.9321 131.627 17.7086C131.903 17.8241 132.18 17.9395 132.449 18.0402C133.369 18.3791 134.696 18.8988 134.746 18.8768C135.526 18.8841 136.117 18.8048 136.343 18.5666C135.832 18.3357 135.315 18.1196 135.089 17.9902C134.637 17.7013 136.379 18.4078 135.927 18.1196C135.65 17.9902 135.381 17.8674 135.104 17.7373C135.482 17.838 135.971 17.9902 136.386 18.0983C136.313 17.9321 136.175 17.7373 135.949 17.4991C135.642 17.3697 135.366 17.2403 135.257 17.183C135.06 17.0382 135.381 17.1029 135.497 17.0742C135.453 17.0455 135.41 17.0095 135.366 16.9808C135.191 16.8941 134.899 16.764 134.724 16.6772C134.768 16.6632 134.856 16.6706 134.957 16.6853C134.768 16.5552 134.571 16.4111 134.374 16.2744C136.32 15.1856 138.289 14.1108 139.455 13.541C139.812 13.3896 138.85 14.0027 139.331 13.7498C140.104 13.3396 140.971 12.7625 141.736 12.3516C142.437 11.6091 141.27 11.9406 141.146 11.6591C140.505 11.9693 139.966 12.0487 139.637 11.9906L122.704 7.21797C122.638 7.54218 122.441 7.65022 122.216 7.41278V7.45541C122.048 7.35471 122.063 7.62155 122.565 8.71768C122.616 8.81839 122.668 8.9272 122.718 9.03453C122.346 8.86177 121.945 8.68167 121.509 8.49347C121.602 8.45084 121.749 8.39275 120.925 8.0112C120.633 7.88107 120.342 7.74432 120.043 7.60759C119.423 6.65556 118.862 5.73956 118.439 4.96838C118.585 4.49274 118.745 4.05974 118.928 3.71349C119.219 3.35326 119.533 4.51405 119.672 3.98033C119.89 3.13638 119.489 2.0623 119.708 1.21909C117.827 0.0869446 115.844 1.09633 113.876 0.908875C113.089 2.25714 108.511 2.49532 107.395 1.78148C107.359 1.79544 107.323 1.80281 107.286 1.8175C106.791 1.63666 106.179 1.72412 105.632 2.36519C104.669 2.53868 103.707 2.64677 102.913 2.78352C102.847 2.62473 102.774 2.45929 102.731 2.31445C102.657 1.8969 103.547 2.66808 103.292 2.17773C102.876 1.41391 101.994 0.764755 101.586 0.000198364C99.8878 -0.0211334 99.4642 1.68738 98.3129 2.45195C98.437 2.88422 98.3129 3.40398 98.058 3.90829C97.5697 3.79288 97.0739 3.69215 96.5559 3.63408C96.3009 3.67084 96.0386 3.69952 95.7829 3.72084C95.3028 3.49736 94.9155 3.39587 94.6829 3.47528C94.7624 3.58408 94.8501 3.69217 94.9304 3.79289C93.3919 3.8936 91.9782 3.93036 91.3583 4.34131C90.5348 4.8096 89.718 5.29994 88.8952 5.77557C88.5957 5.43668 87.9833 5.20657 86.9777 5.15512C87.8748 4.75224 89.3977 4.68019 90.2294 4.0237C90.2212 4.01634 90.2137 4.00902 90.2063 4.00902C89.7262 4.19722 88.7852 4.33394 88.3549 4.52876C88.8878 4.28322 89.4266 4.03842 89.9588 3.79289C89.7767 3.64879 89.5872 3.51938 89.3977 3.38191C88.9168 3.41867 88.4575 3.49072 88.042 3.6848C88.392 3.51939 88.7488 3.3606 89.1063 3.19446C88.618 2.89893 88.1 2.63206 87.5678 2.40858C85.8769 2.19244 84.0329 1.55064 83.3477 1.86087C77.6105 4.009 71.9463 6.36005 66.4938 9.04926C66.7421 9.54695 67.2884 9.89319 66.9606 10.3475C65.7944 11.5443 63.7966 10.4695 62.6304 11.6664C62.6446 11.7097 62.6669 11.7531 62.681 11.7965C62.0908 11.6304 61.5 12.2582 61.0852 11.4142C61.1506 11.0606 62.9656 12.2435 62.2952 10.8952C62.1637 10.6284 61.7631 10.8011 61.5587 10.8879C62.5063 9.83511 62.4483 8.23468 60.5672 7.41278C60.9611 7.23927 61.7995 7.49954 62.0908 7.10255C62.0908 7.09521 62.0834 7.08786 62.0767 7.08124C61.8582 7.14594 61.3625 7.06651 61.1729 7.15253C61.4056 7.0518 61.6464 6.95111 61.8798 6.85039C61.7408 6.68423 61.6025 6.52544 61.4568 6.36665C61.2019 6.30196 60.9611 6.26593 60.7716 6.34532C60.9321 6.28064 61.0852 6.20859 61.245 6.14316C60.8957 5.78293 60.5315 5.44403 60.174 5.13379C59.1684 4.59344 57.9576 3.64143 57.6522 3.77156C54.9906 4.44203 52.4183 5.29259 50.0637 6.49678C50.3327 6.97977 50.7341 7.39807 50.6679 7.72227C50.3253 8.52286 48.9191 7.16798 48.5764 7.96048C48.7147 8.22734 48.8462 8.50156 48.977 8.76768C48.3207 8.69563 47.5916 8.53021 46.8848 8.43611C46.0323 9.05658 45.2303 9.74837 44.4722 10.5203C44.6617 10.7871 44.8223 11.0467 44.7933 11.1981C44.5302 11.6164 43.8598 11.6377 43.2696 11.8546C43.2183 11.9406 43.1596 12.034 43.1091 12.1207C43.1455 12.3229 43.2838 12.6111 43.3715 12.7838C43.1091 12.8926 42.8534 12.936 42.5992 12.9647C40.8273 15.9781 39.158 19.2878 37.2627 22.6981C37.0516 23.7648 36.8473 24.8249 36.4385 25.4888C35.725 26.282 34.3106 26.3975 33.3993 26.779C34.697 28.8338 34.2444 30.7805 34.8353 32.7279C33.5956 33.8666 32.335 35.0208 31.0514 36.1882C29.9879 37.6666 28.9309 39.1443 27.7128 40.1971C25.8175 41.56 22.9092 42.3893 20.8541 43.334C22.6394 45.9872 18.4631 49.8813 20.9336 52.2242C19.5631 52.8513 17.5006 53.7886 17.8142 54.6399C18.7544 57.1777 19.1699 60.4579 16.3775 63.7169C15.8387 63.9911 15.2991 64.2653 14.7744 64.5322C13.6223 64.9218 12.4056 65.1306 12.2451 65.6136C12.0987 66.0753 12.5 66.2914 13.0099 66.4502C13.7033 69.096 9.44528 73.4724 12.1061 75.2611C10.3349 76.2484 7.66002 77.7121 7.99523 78.5634C8.99415 81.1011 9.27806 84.5696 5.44366 88.7078C3.81075 90.1068 0.421552 90.7846 0.0566186 91.6278C-0.511964 92.9695 3.4027 91.8734 2.83412 93.207C5.99068 91.6139 9.05212 89.9267 12.063 88.1814C11.9389 88.8093 11.7858 89.3856 11.5524 89.8546C10.772 90.9868 9.13239 91.7367 8.08962 92.5586C9.27807 93.6253 9.58428 94.9956 9.96259 96.3005C10.335 97.6054 10.772 98.853 12.1425 99.7682C11.5093 100.273 10.6189 101.095 11.2387 101.752C11.9389 102.493 12.6383 103.316 13.2366 104.181C12.8278 104.484 12.3469 104.729 12.0266 105.018C13.5131 106.171 14.1181 107.484 14.9133 108.738V108.767C14.7164 109.588 13.076 109.733 13.3235 110.288C13.5718 110.836 14.344 110.879 14.9854 111.059C14.8539 111.103 14.7379 111.146 14.6428 111.204C16.8666 113.424 17.1 115.35 19.4033 117.477C17.8507 117.895 16.2326 118.104 15.9115 118.623C15.5838 119.193 16.2831 119.452 17.0925 119.64C17.8722 119.842 18.6742 120.044 18.2884 120.656C18.973 120.433 19.6582 120.202 20.3361 119.979C20.3873 120.044 20.4379 120.109 20.504 120.166C18.281 121.716 15.6276 123.685 15.948 124.435C17.0338 126.98 17.1364 130.751 12.0771 136.49C9.94104 138.538 5.63319 140.305 5.13001 141.357C4.34292 143.008 9.33678 140.614 8.54894 142.273C12.7698 139.439 16.8807 136.541 20.9485 133.613C20.9708 133.671 20.9923 133.729 21.0288 133.786C22.4796 136.072 23.923 138.834 23.8427 140.888C23.8204 140.953 23.784 141.004 23.7334 141.047C23.726 141.055 23.7186 141.061 23.7186 141.069C23.7044 141.076 23.6896 141.083 23.6821 141.09C22.982 141.437 22.0708 140.852 21.4004 140.751C21.4219 142.337 20.9923 143.498 20.5479 144.666C20.1027 145.835 19.6441 147.003 19.7526 148.611C19.2138 148.531 18.4118 148.344 18.2951 149.238C17.9525 151.892 17.268 154.984 15.3868 156.39C14.6718 156.686 13.8267 155.431 13.5212 155.936C13.0255 156.737 14.0891 157.926 13.6008 158.727C16.0869 159.592 18.6452 159.714 21.1678 159.62C23.697 159.483 26.1891 159.116 28.7266 158.864C29.1279 158.481 30.1261 158.034 31.4528 157.616C32.7646 157.155 34.3908 156.679 36.0312 156.167C37.9911 155.575 39.96 154.92 41.5631 154.429C41.7311 154.602 42.0373 154.725 42.4818 154.797C42.4677 154.992 42.4461 155.186 42.4238 155.381C41.2718 155.683 40.0254 156.001 39.129 156.541C39.1357 156.549 39.1431 156.549 39.1506 156.556C39.902 156.282 41.2941 156.008 41.9719 155.728C41.1336 156.066 40.2877 156.412 39.4494 156.758C39.6679 156.888 39.902 157.01 40.1421 157.133C40.8348 157.025 41.5193 156.88 42.1756 156.621C41.6219 156.845 41.06 157.076 40.4988 157.299C40.9515 157.493 41.4472 157.652 41.9504 157.796C41.7534 158.424 41.5052 158.987 41.17 159.426C40.6817 159.815 39.9161 158.698 39.7489 159.239C39.4858 160.104 40.4044 161.127 40.1346 161.993C42.0299 162.468 43.8962 162.331 45.7328 162.036C47.5775 161.718 49.3784 161.243 51.2514 160.991C51.3093 160.904 51.397 160.817 51.4988 160.724C51.594 160.911 51.704 161.106 51.8274 161.301C51.4409 161.409 50.8723 161.574 51.2514 162.39C52.3737 164.841 53.4967 167.747 53.2923 169.65C53.1028 170.169 52.0384 169.426 52.1477 169.982C52.3372 170.847 53.4744 171.445 53.6572 172.318C55.2678 172.087 56.6012 171.359 57.8922 170.53C58.0669 170.883 58.3657 171.229 58.8258 171.561C58.3441 171.633 57.5281 171.178 57.0754 171.496C57.0828 171.503 57.0828 171.51 57.0903 171.518C57.3311 171.51 57.7756 171.676 58.0238 171.676C57.7533 171.719 57.4842 171.755 57.2211 171.799C57.3162 171.994 57.4181 172.18 57.5206 172.369C57.7756 172.491 58.0238 172.585 58.249 172.556C58.0528 172.577 57.8633 172.607 57.6737 172.635C57.9287 173.075 58.2059 173.493 58.4898 173.876C59.3936 174.654 60.371 175.866 60.7426 175.815C63.833 175.786 66.887 175.555 69.8251 174.942C69.6943 174.401 69.4096 173.904 69.5842 173.594C70.219 172.895 71.2826 174.553 71.9173 173.854C71.8593 173.565 71.8073 173.27 71.7493 172.974C72.4346 173.198 73.1712 173.537 73.8928 173.789C75.0151 173.385 76.1159 172.902 77.1802 172.325C77.071 172.015 76.9832 171.727 77.0709 171.582C77.4864 171.236 78.2222 171.381 78.9298 171.301C79.0175 171.229 79.1052 171.15 79.1922 171.078C79.2212 170.869 79.1632 170.559 79.1342 170.371C79.4256 170.328 79.702 170.342 79.9577 170.371C80.2342 170.458 80.5114 170.479 80.5917 171.136C80.4758 171.439 79.5274 169.65 79.702 171.136C79.7384 171.431 80.0305 171.431 80.1836 171.431C79.3668 172.022 79.0978 173.5 80.1547 174.993C79.87 174.993 79.3743 174.423 79.1126 174.668C79.1126 174.683 79.1126 174.683 79.1126 174.698C79.2724 174.719 79.5712 174.986 79.7095 174.986H79.1996C79.2583 175.187 79.3163 175.389 79.3817 175.591C79.5348 175.75 79.6805 175.88 79.8195 175.88H79.4768C79.6299 176.348 79.7972 176.796 79.9726 177.214C80.5189 178.107 81.1172 179.449 81.3431 179.449C83.1871 179.882 85.017 180.112 86.7658 179.946C86.6863 179.398 86.5116 178.865 86.6127 178.591C86.9843 177.999 87.6332 179.788 88.0123 179.196C87.9758 178.894 87.9394 178.598 87.9037 178.303C88.311 178.627 88.7562 179.067 89.1933 179.427C89.8637 179.196 90.5125 178.879 91.1473 178.476C91.0819 178.158 91.0306 177.862 91.0737 177.733C91.3219 177.451 91.7671 177.704 92.1819 177.733C92.2406 177.675 92.2919 177.61 92.3424 177.553C92.3573 177.351 92.3209 177.04 92.2993 176.846C92.4888 176.853 92.6635 176.91 92.8314 176.983C93.7568 175.887 94.6755 174.705 95.6157 173.479C98.6117 173.212 101.433 172.664 104.064 171.972C107.366 171.092 110.377 170.01 113.096 168.843C112.878 168.33 112.359 167.955 112.703 167.516C113.876 166.405 115.808 167.603 116.974 166.456L116.682 165.598C117.921 165.425 119.263 165.332 120.604 165.151C122.63 163.969 124.621 162.735 126.495 161.344C126.305 161.106 126.159 160.882 126.232 160.688C127.398 162.844 128.091 165.583 126.458 168.641C125.562 169.809 123.126 170.256 123.061 170.991C122.966 172.159 125.699 171.367 125.605 172.527C130.154 169.679 134.214 166.341 138.15 162.865C142.057 159.361 145.841 155.706 149.806 152.093C150.251 151.235 151.658 149.483 153.619 147.32C155.558 145.135 158.022 142.496 160.537 139.8C165.58 134.421 170.779 128.747 173.133 126.619L173.482 126.165C174.685 124.939 175.947 123.512 177.004 122.004C178.053 120.483 178.936 118.912 179.402 117.426C179.679 115.926 179.832 114.312 180 112.733C179.198 112.884 178.426 112.992 177.703 113.043Z" fill="#F2AB43"/>
</svg>
