<svg width="512" height="512" viewBox="0 0 512 512" fill="none" xmlns="http://www.w3.org/2000/svg">
<path d="M289.121 0.545898C288.229 1.67903 242.842 4.07121 233.229 3.56759C223.419 2.93807 205.878 3.8194 203.401 4.95253C202.013 5.70796 199.833 6.21157 198.446 6.21157C197.158 6.21157 195.275 6.71519 194.284 7.34471C191.707 9.10736 179.617 11.4995 171.491 12.0031C167.428 12.1291 162.771 12.8845 161.086 13.514C159.302 14.1435 155.041 14.5212 151.473 14.3953C147.906 14.2694 144.14 14.6471 143.05 15.1507C140.474 16.2839 127.095 17.9206 118.276 18.1724C114.51 18.2983 99.0505 18.802 83.9876 19.3056C64.8616 20.061 55.9428 19.9351 54.5554 18.9279C53.0689 17.9206 51.2852 18.0465 47.7176 19.3056C45.1411 20.3128 40.2853 22.0755 37.015 23.2086C33.7448 24.3417 29.0872 26.4821 26.6097 27.9929C24.2314 29.5038 21.7539 30.7628 21.2584 30.7628C19.5738 30.7628 19.4747 34.6658 20.9611 36.6803C22.1503 38.1911 22.2494 38.9466 21.0602 41.5906C20.3665 43.2273 20.0692 45.8713 20.3665 47.3821C20.6638 48.893 20.1683 51.9147 19.3756 53.9291C18.4837 56.1954 18.2855 58.084 18.781 58.5876C19.2765 58.9653 19.6728 61.1056 19.6728 63.246C19.6728 65.5123 20.0692 69.1635 20.5647 71.3039C21.3575 74.5774 21.1593 75.9623 19.5737 78.4804C18.2855 80.6207 18.0873 81.7539 18.8801 82.0057C19.6728 82.3834 19.3756 84.2719 17.8891 88.175C16.6999 91.3226 15.5107 95.6033 15.3125 97.7437C15.2134 99.884 14.3215 102.906 13.3306 104.542C12.4387 106.179 11.745 109.956 11.745 112.978C11.745 115.874 11.1504 119.651 10.3576 121.162C9.56483 122.673 8.67295 126.45 8.27656 129.597C7.38468 139.04 7.18648 139.921 5.70001 141.432C3.81714 143.321 3.42075 151.379 4.11444 173.664C4.21353 176.056 3.91624 179.329 3.51985 180.714C2.92526 182.855 3.22255 183.61 4.90722 184.114C5.9973 184.491 6.79009 185.373 6.49279 185.876C5.70001 187.387 7.78107 194.816 10.0603 198.844C12.0423 202.496 12.2405 206.147 10.5558 211.057C9.96123 212.946 9.26754 215.967 9.16844 217.73C8.97025 219.367 6.79009 223.27 4.31263 226.291C-0.543179 232.461 -0.642277 232.838 1.04239 240.896C2.03337 245.555 1.93428 247.192 0.844196 249.836C-0.245884 252.479 -0.245884 253.361 0.645999 254.116C1.33969 254.62 1.93428 256.131 1.93428 257.516C1.83518 258.775 1.83518 261.796 1.83518 264.189C1.73608 266.455 2.23157 269.099 2.72706 269.728C3.32165 270.484 3.81714 272.246 3.81714 273.757C3.81714 275.142 4.90722 278.416 6.39369 281.06C8.67295 285.34 8.77205 285.97 7.38468 287.733C5.20452 290.502 5.40271 291.887 8.17746 292.769C9.96123 293.272 10.6549 294.531 11.1504 298.434C11.4477 301.078 12.2405 303.345 12.8351 303.345C13.4297 303.345 13.5288 304.1 12.9342 305.359C12.4387 306.618 12.3396 309.388 12.8351 312.032C13.4297 315.306 13.2315 317.068 12.1414 318.579C11.3486 319.712 10.3576 322.734 10.0603 325.252C9.56483 329.155 9.76303 329.784 11.5468 329.784C13.8261 329.784 18.0873 339.983 19.1774 348.292C19.7719 352.699 19.4747 353.958 17.4927 356.476C14.5197 360.127 12.5378 365.038 13.1324 367.052C13.4297 367.933 12.9342 369.318 12.1414 370.074C11.3486 370.955 10.754 372.214 10.754 372.844C10.754 373.473 9.76303 375.613 8.67295 377.628C7.48377 379.642 6.59189 382.79 6.69099 384.804C6.79009 386.693 6.88918 389.966 6.88918 391.855C6.88918 393.87 7.48377 396.765 8.27656 398.276C10.6549 402.683 11.1504 410.111 9.36664 413.51C7.18648 417.791 7.38468 418.924 10.6549 421.442C12.9342 423.205 13.3306 424.086 12.6369 425.849C11.9432 427.234 12.1414 429.123 13.1324 431.641C13.9252 433.529 14.4206 435.544 14.1234 435.921C13.8261 436.299 14.3215 438.691 15.1143 441.209C16.0062 443.727 16.4026 446.371 16.2044 447.001C15.9071 447.505 15.4116 452.918 15.1143 458.836C14.7179 468.908 14.817 470.041 17.3936 475.833C18.8801 479.358 20.7629 482.128 21.4566 482.128C22.2494 482.128 22.4476 483.135 22.0512 485.276C21.3575 488.675 23.5377 496.103 25.1232 495.726C25.6187 495.6 27.4025 496.229 29.0872 497.111C31.5646 498.496 33.0511 498.118 40.979 494.593C53.0689 489.179 60.6995 488.171 122.636 484.646C141.861 483.639 147.014 483.639 147.609 484.898C148.005 485.779 148.699 486.031 149.095 485.653C149.392 485.15 150.978 485.527 152.563 486.535C154.446 487.794 158.608 488.423 165.545 488.423C171.194 488.549 177.734 489.179 180.212 489.808C182.689 490.564 187.842 491.571 191.608 492.2C195.473 492.704 200.131 493.711 202.013 494.467C205.482 495.852 251.463 496.859 277.824 496.103C295.166 495.726 322.319 497.992 327.67 500.384C331.337 502.021 334.21 502.147 347.787 500.888C361.165 499.755 365.129 499.881 372.264 501.391C387.525 504.791 446.29 507.435 472.849 505.924C480.975 505.42 481.768 505.672 483.452 508.316C485.732 511.715 490.587 513.226 492.074 510.834C493.461 508.694 495.344 498.37 495.344 493.208C495.344 490.941 496.137 487.29 497.128 485.024C502.975 471.426 504.758 468.279 507.83 466.39C511.993 463.872 513.083 459.339 510.902 454.429C510.011 452.541 509.515 450.652 509.911 450.148C510.209 449.771 509.713 448.26 508.722 446.875C507.137 444.735 506.939 442.468 507.137 433.529C507.236 427.612 507.731 421.568 508.128 420.057C508.623 418.421 508.821 415.525 508.623 413.51C508.425 411.37 508.326 406.838 508.425 403.438C508.92 381.153 508.821 379.768 504.659 370.577C499.704 359.372 498.515 355.469 498.416 349.677C498.317 347.033 497.722 344.515 496.93 344.012C495.344 342.878 494.056 324.748 495.641 324.748C496.236 324.748 496.236 324.119 495.542 323.112C494.551 321.601 495.542 308.633 496.831 305.863C497.227 305.107 497.722 299.819 498.02 294.154C498.218 288.488 498.713 279.549 499.011 274.387C499.903 257.642 500.002 251.724 499.407 251.724C499.11 251.724 498.812 248.451 498.713 244.422C498.614 238.001 497.921 232.209 496.93 228.432C495.84 224.403 498.218 207.406 500.894 200.607C503.173 194.564 503.767 191.29 503.966 183.106C504.164 177.567 504.857 164.85 505.551 154.778C506.839 136.27 506.344 123.05 504.164 118.644C503.272 116.755 503.47 115.244 505.056 111.215C506.74 107.061 506.839 105.424 506.047 100.01C505.551 96.4846 504.957 89.6858 504.857 84.9015C504.659 79.9912 504.263 71.8075 503.866 66.5195C503.272 57.8321 503.47 56.8249 505.353 54.5586C506.542 53.2996 508.029 50.7815 508.722 49.0189C510.407 44.7381 509.812 32.5255 507.83 30.6369C506.939 29.8815 506.245 28.6225 506.245 27.867C506.245 25.349 499.209 23.5863 482.957 22.0755C481.371 21.9496 478.2 21.1941 476.02 20.4387C470.371 18.2983 461.651 17.1652 450.552 17.1652C443.516 17.1652 441.137 16.7875 441.435 15.6544C441.93 14.0176 435.984 12.0031 423.696 9.86278C416.065 8.60374 408.732 9.23326 406.552 11.3736C405.858 12.1291 405.066 11.8772 404.372 10.9959C403.678 9.86278 399.516 9.23326 391.588 8.98146C385.147 8.72965 377.219 7.97422 373.949 7.2188C367.507 5.70796 362.949 5.70796 355.12 6.96699C351.156 7.59651 349.769 7.34471 348.778 5.70796C347.985 4.44892 345.805 3.69349 343.327 3.56759C341.147 3.44169 338.174 3.06397 336.787 2.56036C335.4 2.05674 332.328 2.30855 329.85 3.06397C326.382 4.19711 324.598 4.19711 321.922 2.93807C317.166 0.797705 313.003 0.797706 311.021 3.06397C309.535 4.70072 309.139 4.70072 307.256 2.43446C304.877 -0.335429 302.499 -0.839044 301.904 1.42722C301.607 2.43446 300.814 2.56036 299.526 1.80494C297.544 0.671802 289.715 -0.335429 289.121 0.545898Z" fill="#F2AB43"/>
</svg>
