<svg width="794" height="361" viewBox="0 0 794 361" fill="none" xmlns="http://www.w3.org/2000/svg">
<path d="M448.363 0.384901C446.98 1.18385 376.595 2.87052 361.688 2.51543C346.474 2.07157 319.272 2.69297 315.43 3.49192C313.279 4.02455 309.898 4.37964 307.746 4.37964C305.748 4.37964 302.829 4.73473 301.292 5.17859C297.296 6.4214 278.547 8.10807 265.945 8.46316C259.645 8.55193 252.422 9.08456 249.809 9.52842C247.043 9.97228 240.435 10.2386 234.902 10.1498C229.37 10.0611 223.53 10.3274 221.839 10.6825C217.844 11.4814 197.097 12.6354 183.419 12.813C177.58 12.9018 153.606 13.2568 130.246 13.6119C100.586 14.1446 86.755 14.0558 84.6035 13.3456C82.2983 12.6354 79.5321 12.7242 73.9996 13.6119C70.0039 14.3221 62.4736 15.5649 57.4022 16.3639C52.3308 17.1628 45.1078 18.6719 41.2659 19.7372C37.5775 20.8025 33.7356 21.6902 32.9672 21.6902C30.3546 21.6902 30.2009 24.4421 32.5061 25.8625C34.3503 26.9277 34.504 27.4604 32.6598 29.3246C31.584 30.4786 31.123 32.3428 31.584 33.4081C32.0451 34.4734 31.2767 36.6039 30.0472 38.0243C28.6641 39.6221 28.3568 40.9537 29.1252 41.3088C29.8936 41.5751 30.5083 43.0843 30.5083 44.5934C30.5083 46.1913 31.123 48.7657 31.8914 50.2748C33.1208 52.5829 32.8135 53.5594 30.3546 55.3348C28.3568 56.8439 28.0494 57.6429 29.2788 57.8204C30.5083 58.0867 30.0472 59.4183 27.7421 62.1702C25.8979 64.3895 24.0537 67.4078 23.7464 68.9169C23.5927 70.426 22.2096 72.5566 20.6728 73.7106C19.2897 74.8646 18.2139 77.5278 18.2139 79.6583C18.2139 81.7001 17.2918 84.3633 16.0624 85.4285C14.833 86.4938 13.4499 89.1569 12.8351 91.3762C11.452 98.0341 11.1447 98.6556 8.83946 99.7208C5.91955 101.052 5.30483 106.734 6.38059 122.446C6.53427 124.133 6.07323 126.441 5.45851 127.418C4.53643 128.927 4.99747 129.459 7.61003 129.815C9.3005 130.081 10.5299 130.702 10.0689 131.057C8.83946 132.123 12.0667 137.36 15.6014 140.201C18.675 142.775 18.9823 145.35 16.3698 148.812C15.4477 150.143 14.3719 152.274 14.2182 153.517C13.9109 154.671 10.5299 157.423 6.68795 159.553C-0.842352 163.903 -0.996031 164.169 1.61652 169.851C3.15332 173.135 2.99964 174.289 1.30916 176.154C-0.381313 178.018 -0.381313 178.639 1.0018 179.172C2.07756 179.527 2.99964 180.592 2.99964 181.569C2.84596 182.456 2.84596 184.587 2.84596 186.274C2.69228 187.871 3.46068 189.736 4.22907 190.18C5.15115 190.712 5.91955 191.955 5.91955 193.02C5.91955 193.997 7.61003 196.305 9.91522 198.169C13.4499 201.187 13.6035 201.631 11.452 202.874C8.07106 204.827 8.37842 205.803 12.6815 206.425C15.4477 206.78 16.5234 207.668 17.2918 210.42C17.7529 212.284 18.9823 213.882 19.9044 213.882C20.8265 213.882 20.9802 214.414 20.0581 215.302C19.2897 216.19 19.136 218.143 19.9044 220.007C20.8265 222.315 20.5191 223.558 18.8286 224.623C17.5992 225.422 16.0624 227.553 15.6014 229.328C14.833 232.08 15.1403 232.524 17.9066 232.524C21.4412 232.524 28.0494 239.714 29.7399 245.573C30.662 248.68 30.2009 249.568 27.1273 251.343C22.5169 253.918 19.4434 257.38 20.3654 258.8C20.8265 259.422 20.0581 260.398 18.8286 260.931C17.5992 261.552 16.6771 262.44 16.6771 262.884C16.6771 263.328 15.1403 264.837 13.4499 266.257C11.6057 267.678 10.2226 269.897 10.3763 271.317C10.5299 272.649 10.6836 274.957 10.6836 276.288C10.6836 277.709 11.6057 279.751 12.8351 280.816C16.5234 283.923 17.2918 289.16 14.5256 291.557C11.1447 294.575 11.452 295.374 16.5234 297.15C20.0581 298.393 20.6728 299.014 19.597 300.257C18.5213 301.233 18.8286 302.565 20.3654 304.34C21.5949 305.672 22.3633 307.092 21.9022 307.359C21.4412 307.625 22.2096 309.312 23.439 311.087C24.8221 312.862 25.4369 314.727 25.1295 315.171C24.6685 315.526 23.9001 319.343 23.439 323.515C22.8243 330.617 22.978 331.416 26.9737 335.499C29.2788 337.985 32.1988 339.938 33.2745 339.938C34.504 339.938 34.8113 340.648 34.1966 342.157C33.1208 344.554 36.5018 349.792 38.9607 349.525C39.7291 349.437 42.4953 349.88 45.1078 350.502C48.9498 351.478 51.255 351.212 63.5494 348.726C82.2983 344.909 94.1316 344.199 190.181 341.713C219.995 341.003 227.987 341.003 228.909 341.891C229.523 342.512 230.599 342.69 231.214 342.424C231.675 342.069 234.134 342.335 236.593 343.045C239.513 343.933 245.967 344.377 256.725 344.377C265.484 344.465 275.627 344.909 279.469 345.353C283.311 345.886 291.303 346.596 297.142 347.04C303.136 347.395 310.359 348.105 313.279 348.638C318.658 349.614 389.965 350.324 430.844 349.792C457.738 349.525 499.846 351.123 508.144 352.81C513.831 353.964 518.287 354.053 539.341 353.165C560.088 352.366 566.235 352.455 577.3 353.52C600.967 355.917 692.099 357.781 733.285 356.716C745.887 356.361 747.116 356.538 749.729 358.403C753.263 360.799 760.794 361.865 763.099 360.178C765.25 358.669 768.17 351.39 768.17 347.75C768.17 346.152 769.4 343.578 770.937 341.98C780.004 332.392 782.77 330.173 787.534 328.841C793.988 327.066 795.679 323.87 792.298 320.408C790.915 319.077 790.146 317.745 790.761 317.39C791.222 317.124 790.454 316.058 788.917 315.082C786.458 313.573 786.151 311.975 786.458 305.672C786.612 301.5 787.38 297.239 787.995 296.173C788.763 295.019 789.071 292.978 788.763 291.557C788.456 290.048 788.302 286.852 788.456 284.455C789.224 268.743 789.071 267.766 782.616 261.286C774.932 253.385 773.088 250.633 772.934 246.55C772.781 244.686 771.859 242.91 770.629 242.555C768.17 241.756 766.172 228.973 768.631 228.973C769.553 228.973 769.553 228.529 768.478 227.819C766.941 226.754 768.478 217.61 770.475 215.657C771.09 215.124 771.859 211.396 772.32 207.401C772.627 203.407 773.395 197.104 773.856 193.464C775.24 181.657 775.393 177.485 774.471 177.485C774.01 177.485 773.549 175.177 773.395 172.336C773.242 167.809 772.166 163.725 770.629 161.062C768.939 158.222 772.627 146.237 776.776 141.444C780.311 137.183 781.233 134.875 781.54 129.104C781.848 125.198 782.924 116.232 783.999 109.131C785.997 96.0812 785.229 86.7601 781.848 83.6531C780.465 82.3215 780.772 81.2562 783.231 78.4155C785.843 75.4861 785.997 74.332 784.768 70.5148C783.999 68.0292 783.077 63.2355 782.923 59.8622C782.616 56.4001 782.001 50.6299 781.387 46.9015C780.465 40.7762 780.772 40.066 783.692 38.4681C785.536 37.5804 787.841 35.8049 788.917 34.5621C791.53 31.5439 790.607 22.933 787.534 21.6014C786.151 21.0688 785.075 20.1811 785.075 19.6484C785.075 17.873 774.164 16.6302 748.96 15.5649C746.501 15.4761 741.584 14.9435 738.203 14.4109C729.443 12.9018 715.919 12.1028 698.707 12.1028C687.796 12.1028 684.108 11.8365 684.569 11.0375C685.337 9.88351 676.116 8.46316 657.06 6.95403C645.227 6.06631 633.854 6.51017 630.473 8.0193C629.398 8.55193 628.168 8.37438 627.092 7.75298C626.017 6.95403 619.562 6.51017 607.268 6.33263C597.279 6.15508 584.984 5.62245 579.913 5.08982C569.924 4.02455 562.854 4.02455 550.714 4.91228C544.566 5.35614 542.415 5.17859 540.878 4.02455C539.649 3.13683 536.268 2.6042 532.426 2.51543C529.045 2.42666 524.434 2.16034 522.283 1.80525C520.131 1.45017 515.367 1.62771 511.525 2.16034C506.147 2.95929 503.38 2.95929 499.231 2.07157C491.854 0.562445 485.4 0.562445 482.326 2.16034C480.021 3.31438 479.406 3.31438 476.486 1.71648C472.798 -0.236504 469.11 -0.591592 468.188 1.0063C467.727 1.71648 466.497 1.80525 464.499 1.27262C461.426 0.473673 449.285 -0.236504 448.363 0.384901Z" fill="#F7E2C4"/>
</svg>
