<svg width="49" height="48" viewBox="0 0 49 48" fill="none" xmlns="http://www.w3.org/2000/svg">
<mask id="mask0_601_15362" style="mask-type:luminance" maskUnits="userSpaceOnUse" x="2" y="2" width="45" height="44">
<path d="M12.4219 9.927V7C12.4219 6.20435 12.7379 5.44129 13.3006 4.87868C13.8632 4.31607 14.6262 4 15.4219 4H41.4219C42.2175 4 42.9806 4.31607 43.5432 4.87868C44.1058 5.44129 44.4219 6.20435 44.4219 7V33C44.4219 33.7956 44.1058 34.5587 43.5432 35.1213C42.9806 35.6839 42.2175 36 41.4219 36H38.4389" stroke="white" stroke-width="4"/>
<path d="M35.4219 10H7.42188C5.76502 10 4.42188 11.3431 4.42188 13V41C4.42188 42.6569 5.76502 44 7.42188 44H35.4219C37.0787 44 38.4219 42.6569 38.4219 41V13C38.4219 11.3431 37.0787 10 35.4219 10Z" fill="white" stroke="white" stroke-width="4" stroke-linejoin="round"/>
<path d="M18.8618 23.1092L24.1538 17.5992C25.6048 16.1482 27.9908 16.1792 29.4818 17.6712C30.9728 19.1622 31.0048 21.5482 29.5538 22.9992L27.6438 25.0222M13.8878 28.7462C13.3778 29.2562 12.3228 30.2762 12.3228 30.2762C10.8708 31.7272 10.8308 34.3142 12.3228 35.8062C13.8128 37.2962 16.1988 37.3292 17.6508 35.8772L22.8148 31.1892" stroke="black" stroke-width="4" stroke-linecap="round" stroke-linejoin="round"/>
<path d="M19.0841 28.328C18.4198 27.668 18.0179 26.7892 17.9531 25.855C17.9148 25.3309 17.9896 24.8048 18.1725 24.3122C18.3554 23.8196 18.6421 23.3721 19.0131 23M22.7421 25.861C24.2331 27.352 24.2651 29.738 22.8141 31.19" stroke="black" stroke-width="4" stroke-linecap="round" stroke-linejoin="round"/>
</mask>
<g mask="url(#mask0_601_15362)">
<path d="M0.421875 0H48.4219V48H0.421875V0Z" fill="#494C21"/>
</g>
</svg>
