<svg width="119" height="40" viewBox="0 0 119 40" fill="none" xmlns="http://www.w3.org/2000/svg">
<path d="M67.198 0.0426483C66.9907 0.131174 56.4418 0.318063 54.2076 0.278718C51.9274 0.229537 47.8506 0.29839 47.2748 0.386917C46.9524 0.445934 46.4456 0.485279 46.1232 0.485279C45.8238 0.485279 45.3861 0.524624 45.1558 0.573805C44.557 0.711512 41.747 0.898401 39.8583 0.937746C38.914 0.947582 37.8315 1.0066 37.4399 1.05578C37.0253 1.10496 36.0349 1.13447 35.2057 1.12463C34.3766 1.1148 33.5013 1.14431 33.248 1.18365C32.6491 1.27218 29.5397 1.40005 27.4898 1.41972C26.6146 1.42956 23.0215 1.4689 19.5205 1.50825C15.0753 1.56727 13.0023 1.55743 12.6799 1.47874C12.3344 1.40005 11.9198 1.40989 11.0906 1.50825C10.4918 1.58694 9.36318 1.72464 8.6031 1.81317C7.84303 1.9017 6.7605 2.06891 6.18468 2.18695C5.6319 2.30498 5.05608 2.40335 4.94092 2.40335C4.54937 2.40335 4.52634 2.70827 4.87182 2.86565C5.14821 2.98368 5.17125 3.0427 4.89486 3.24926C4.73363 3.37713 4.66453 3.58369 4.73363 3.70173C4.80273 3.81976 4.68756 4.05583 4.5033 4.21321C4.29601 4.39026 4.24994 4.53781 4.36511 4.57715C4.48027 4.60666 4.5724 4.77388 4.5724 4.94109C4.5724 5.11815 4.66453 5.4034 4.77969 5.57061C4.96395 5.82636 4.91789 5.93455 4.54937 6.13128C4.24994 6.2985 4.20388 6.38702 4.38814 6.40669C4.5724 6.4362 4.5033 6.58375 4.15781 6.88867C3.88142 7.13457 3.60503 7.46901 3.55897 7.63622C3.53593 7.80344 3.32864 8.03951 3.09832 8.16738C2.89102 8.29525 2.72979 8.59034 2.72979 8.82641C2.72979 9.05264 2.5916 9.34773 2.40734 9.46576C2.22308 9.5838 2.01578 9.87889 1.92365 10.1248C1.71636 10.8625 1.67029 10.9314 1.32481 11.0494C0.887187 11.1969 0.795057 11.8265 0.956285 13.5675C0.979317 13.7544 0.91022 14.0101 0.818089 14.1183C0.679894 14.2855 0.748991 14.3445 1.14055 14.3839C1.3939 14.4134 1.57816 14.4822 1.50907 14.5216C1.32481 14.6396 1.80849 15.22 2.33824 15.5347C2.79889 15.82 2.84496 16.1052 2.4534 16.4888C2.31521 16.6364 2.15398 16.8724 2.13095 17.0102C2.08488 17.138 1.57816 17.443 1.00235 17.679C-0.126247 18.161 -0.149279 18.1905 0.242275 18.82C0.472601 19.184 0.449568 19.3118 0.19621 19.5184C-0.0571489 19.725 -0.0571489 19.7938 0.150144 19.8528C0.311372 19.8922 0.449568 20.0102 0.449568 20.1184C0.426535 20.2168 0.426535 20.4528 0.426535 20.6397C0.403503 20.8168 0.518666 21.0233 0.633829 21.0725C0.772024 21.1315 0.887187 21.2692 0.887187 21.3873C0.887187 21.4955 1.14055 21.7512 1.48603 21.9578C2.01578 22.2922 2.03882 22.3414 1.71636 22.4791C1.20964 22.6955 1.25571 22.8037 1.90062 22.8726C2.31521 22.9119 2.47644 23.0103 2.5916 23.3152C2.6607 23.5217 2.84496 23.6988 2.98315 23.6988C3.12135 23.6988 3.14438 23.7578 3.00618 23.8562C2.89102 23.9545 2.86799 24.1709 2.98315 24.3775C3.12135 24.6332 3.07528 24.7709 2.82192 24.889C2.63766 24.9775 2.40734 25.2136 2.33824 25.4103C2.22308 25.7152 2.26914 25.7644 2.68373 25.7644C3.21348 25.7644 4.20388 26.5611 4.45724 27.2103C4.59543 27.5546 4.52634 27.653 4.06568 27.8497C3.37471 28.1349 2.91405 28.5186 3.05225 28.6759C3.12135 28.7448 3.00618 28.853 2.82192 28.912C2.63766 28.9809 2.49947 29.0792 2.49947 29.1284C2.49947 29.1776 2.26914 29.3448 2.01578 29.5022C1.73939 29.6596 1.5321 29.9055 1.55513 30.0628C1.57816 30.2104 1.6012 30.4661 1.6012 30.6137C1.6012 30.7711 1.73939 30.9973 1.92365 31.1153C2.47644 31.4596 2.5916 32.0399 2.17701 32.3055C1.67029 32.6399 1.71636 32.7285 2.47644 32.9252C3.00618 33.0629 3.09832 33.1317 2.93709 33.2695C2.77586 33.3777 2.82192 33.5252 3.05225 33.7219C3.23651 33.8695 3.35167 34.0268 3.28258 34.0564C3.21348 34.0859 3.32864 34.2728 3.5129 34.4695C3.72019 34.6662 3.81233 34.8728 3.76626 34.9219C3.69716 34.9613 3.582 35.3842 3.5129 35.8465C3.42077 36.6334 3.4438 36.722 4.04265 37.1744C4.38814 37.4499 4.82576 37.6663 4.98699 37.6663C5.17125 37.6663 5.21731 37.7449 5.12518 37.9122C4.96395 38.1777 5.47067 38.7581 5.83919 38.7286C5.95436 38.7187 6.36894 38.7679 6.7605 38.8368C7.33631 38.945 7.6818 38.9155 9.52441 38.64C12.3344 38.2171 14.1079 38.1384 28.5033 37.863C32.9716 37.7843 34.1693 37.7843 34.3075 37.8827C34.3996 37.9515 34.5608 37.9712 34.653 37.9417C34.7221 37.9023 35.0906 37.9318 35.4591 38.0105C35.8967 38.1089 36.8641 38.1581 38.4764 38.1581C39.7892 38.1679 41.3094 38.2171 41.8852 38.2663C42.461 38.3253 43.6587 38.404 44.5339 38.4532C45.4322 38.4925 46.5147 38.5712 46.9524 38.6302C47.7585 38.7384 58.4456 38.8171 64.5723 38.7581C68.603 38.7286 74.9139 38.9056 76.1577 39.0925C77.0099 39.2204 77.6778 39.2302 80.8333 39.1319C83.9427 39.0433 84.864 39.0532 86.5223 39.1712C90.0694 39.4368 103.728 39.6433 109.9 39.5253C111.789 39.486 111.973 39.5056 112.365 39.7122C112.895 39.9778 114.023 40.0958 114.369 39.9089C114.691 39.7417 115.129 38.9351 115.129 38.5318C115.129 38.3548 115.313 38.0695 115.543 37.8925C116.902 36.8302 117.317 36.5843 118.031 36.4367C118.998 36.24 119.252 35.8859 118.745 35.5023C118.538 35.3547 118.422 35.2072 118.515 35.1679C118.584 35.1383 118.469 35.0203 118.238 34.9121C117.87 34.7449 117.824 34.5678 117.87 33.8695C117.893 33.4072 118.008 32.935 118.1 32.817C118.215 32.6891 118.261 32.4629 118.215 32.3055C118.169 32.1383 118.146 31.7842 118.169 31.5186C118.284 29.7776 118.261 29.6694 117.294 28.9513C116.142 28.0759 115.866 27.771 115.843 27.3185C115.82 27.112 115.682 26.9152 115.497 26.8759C115.129 26.7874 114.829 25.371 115.198 25.371C115.336 25.371 115.336 25.3218 115.175 25.2431C114.945 25.1251 115.175 24.1119 115.474 23.8955C115.566 23.8365 115.682 23.4234 115.751 22.9808C115.797 22.5381 115.912 21.8397 115.981 21.4365C116.188 20.1282 116.211 19.6659 116.073 19.6659C116.004 19.6659 115.935 19.4102 115.912 19.0954C115.889 18.5938 115.728 18.1413 115.497 17.8462C115.244 17.5315 115.797 16.2036 116.419 15.6724C116.948 15.2003 117.087 14.9445 117.133 14.3052C117.179 13.8724 117.34 12.8789 117.501 12.092C117.801 10.6461 117.685 9.61331 117.179 9.26904C116.971 9.1215 117.017 9.00346 117.386 8.6887C117.778 8.3641 117.801 8.23623 117.616 7.81328C117.501 7.53786 117.363 7.0067 117.34 6.63293C117.294 6.24931 117.202 5.60996 117.11 5.19684C116.971 4.51814 117.017 4.43945 117.455 4.26239C117.731 4.16403 118.077 3.96731 118.238 3.8296C118.63 3.49517 118.492 2.54105 118.031 2.39351C117.824 2.33449 117.662 2.23613 117.662 2.17711C117.662 1.98039 116.027 1.84268 112.25 1.72464C111.881 1.71481 111.144 1.65579 110.637 1.59677C109.325 1.42956 107.298 1.34103 104.718 1.34103C103.083 1.34103 102.53 1.31152 102.599 1.223C102.714 1.09513 101.332 0.937746 98.4762 0.77053C96.7027 0.672167 94.9983 0.721349 94.4916 0.888565C94.3304 0.947582 94.1461 0.92791 93.9849 0.859056C93.8237 0.77053 92.8563 0.721349 91.0137 0.701676C89.5166 0.682004 87.674 0.622986 86.9139 0.563969C85.4168 0.445934 84.3573 0.445934 82.5377 0.544296C81.6164 0.593478 81.2939 0.573805 81.0636 0.445934C80.8793 0.347572 80.3726 0.288554 79.7968 0.278718C79.2901 0.268882 78.5991 0.239373 78.2767 0.200028C77.9542 0.160683 77.2402 0.180356 76.6644 0.239373C75.8582 0.327899 75.4437 0.327899 74.8218 0.229537C73.7162 0.0623207 72.7488 0.0623207 72.2882 0.239373C71.9427 0.367244 71.8506 0.367244 71.413 0.190192C70.8602 -0.0262054 70.3074 -0.0655503 70.1692 0.111502C70.1001 0.190192 69.9158 0.200028 69.6164 0.141011C69.1558 0.0524845 67.3362 -0.0262054 67.198 0.0426483Z" fill="#F2AB43"/>
</svg>
