<svg width="542" height="220" viewBox="0 0 542 220" fill="none" xmlns="http://www.w3.org/2000/svg">
<g filter="url(#filter0_d_0_1570)">
<path d="M293.621 52.8689C292.86 53.1587 253.245 57.0422 244.838 57.6661C236.256 58.2802 220.945 59.7725 218.8 60.1816C217.6 60.4344 215.704 60.6973 214.492 60.8016C213.366 60.8985 211.73 61.1391 210.874 61.3374C208.653 61.8776 198.13 63.2569 191.039 63.967C187.491 64.2973 183.434 64.7961 181.973 65.0465C180.425 65.3044 176.708 65.6991 173.589 65.9426C170.47 66.1862 167.186 66.5436 166.242 66.7246C164.01 67.1411 152.349 68.4688 144.647 69.1816C141.359 69.4896 127.861 70.7512 114.708 71.983C98.0104 73.5698 90.2157 74.2158 88.9865 74.1222C87.6707 74.036 86.1143 74.1949 83.0186 74.7106C80.7844 75.1024 76.5716 75.814 73.7335 76.2826C70.8954 76.7513 66.8621 77.5222 64.7231 78.0055C62.6706 78.4813 60.5273 78.915 60.0944 78.9523C58.6224 79.079 58.6019 79.8535 59.9347 80.1377C60.9993 80.3452 61.0987 80.4862 60.1044 81.0953C59.526 81.4691 59.3109 82.0111 59.5963 82.2857C59.8816 82.5603 59.4998 83.1914 58.8412 83.647C58.1003 84.1595 57.959 84.5455 58.4005 84.6073C58.8398 84.6442 59.2223 85.0351 59.2585 85.4557C59.2969 85.9012 59.705 86.589 60.1741 86.9724C60.9222 87.5561 60.7724 87.8432 59.4297 88.4573C58.3403 88.9749 58.1863 89.2125 58.8832 89.2024C59.5823 89.217 59.3545 89.6105 58.1217 90.4894C57.136 91.1975 56.1694 92.1282 56.0324 92.5638C55.982 92.9919 55.2539 93.6529 54.4158 94.0491C53.6642 94.4378 53.122 95.2324 53.1731 95.8262C53.2221 96.3954 52.7665 97.1824 52.0994 97.539C51.4323 97.8956 50.7169 98.705 50.4238 99.3534C49.8043 101.276 49.646 101.464 48.3728 101.873C46.7597 102.386 46.5496 103.999 47.5327 108.327C47.6598 108.79 47.4554 109.456 47.1325 109.758C46.6492 110.223 46.9217 110.349 48.4022 110.321C49.361 110.314 50.0686 110.427 49.8174 110.549C49.1502 110.905 51.0942 112.209 53.1538 112.829C54.9472 113.398 55.1822 114.1 53.7933 115.192C53.3057 115.608 52.7508 116.254 52.694 116.608C52.5485 116.944 50.7097 117.875 48.5962 118.656C44.4579 120.233 44.3777 120.315 45.986 121.772C46.9306 122.613 46.8717 122.942 45.964 123.544C45.0563 124.145 45.0713 124.319 45.8633 124.4C46.4779 124.447 47.023 124.699 47.0464 124.971C46.9811 125.226 47.0322 125.82 47.0727 126.29C47.0244 126.743 47.5021 127.226 47.9457 127.312C48.478 127.416 48.9407 127.725 48.9663 128.022C48.9897 128.294 49.9975 128.855 51.341 129.263C53.4048 129.933 53.5021 130.049 52.3197 130.5C50.4617 131.209 50.6583 131.466 53.0976 131.43C54.6646 131.395 55.292 131.591 55.791 132.32C56.0954 132.818 56.8264 133.203 57.346 133.159C57.8655 133.114 57.9648 133.255 57.4666 133.547C57.055 133.832 57.0153 134.384 57.4929 134.866C58.0678 135.465 57.9244 135.826 56.9976 136.205C56.3241 136.487 55.5094 137.156 55.2922 137.673C54.9253 138.477 55.1091 138.586 56.6676 138.452C58.6591 138.281 62.5547 139.965 63.6477 141.516C64.2418 142.337 64.0033 142.607 62.3142 143.251C59.7785 144.192 58.1299 145.306 58.6834 145.657C58.9581 145.808 58.5486 146.118 57.8687 146.326C57.1909 146.559 56.6927 146.851 56.7034 146.974C56.714 147.098 55.8844 147.593 54.9661 148.071C53.9611 148.557 53.2351 149.242 53.3558 149.631C53.4743 149.995 53.6163 150.63 53.6482 151.002C53.6823 151.398 54.2508 151.922 54.969 152.159C57.1216 152.846 57.6802 154.269 56.1792 155.071C54.3467 156.077 54.5391 156.285 57.439 156.533C59.4602 156.708 59.8215 156.852 59.2452 157.25C58.6625 157.575 58.8676 157.931 59.7761 158.352C60.5007 158.663 60.9677 159.022 60.7143 159.118C60.461 159.215 60.9344 159.648 61.6696 160.083C62.4915 160.511 62.8826 161.001 62.72 161.139C62.4688 161.261 62.1275 162.362 61.9678 163.547C61.7919 165.557 61.8976 165.772 64.2468 166.717C65.6052 167.298 67.2972 167.7 67.9033 167.648C68.5959 167.589 68.7861 167.772 68.476 168.222C67.9274 168.942 69.9579 170.238 71.3369 170.045C71.7677 169.983 73.3369 169.973 74.8237 170.019C77.0117 170.105 78.3041 169.919 85.1712 168.63C95.6429 166.657 102.293 165.885 156.348 160.534C173.129 158.89 177.631 158.503 178.172 158.705C178.533 158.849 179.144 158.846 179.483 158.742C179.735 158.621 181.126 158.576 182.529 158.654C184.195 158.76 187.842 158.571 193.903 158.049C198.841 157.649 204.566 157.281 206.741 157.218C208.919 157.181 213.438 156.991 216.739 156.832C220.124 156.64 224.211 156.488 225.869 156.494C228.922 156.506 269.115 153.246 292.133 151.115C307.279 149.736 331.042 148.14 335.758 148.207C338.989 148.253 341.502 148.062 353.343 146.794C365.012 145.565 368.478 145.291 374.738 145.052C388.129 144.572 439.518 140.672 462.697 138.378C469.789 137.668 470.486 137.658 472.002 138.051C474.051 138.548 478.319 138.479 479.578 137.897C480.754 137.372 482.224 135.202 482.137 134.187C482.098 133.742 482.729 132.964 483.557 132.445C488.435 129.332 489.941 128.58 492.593 127.977C496.187 127.169 497.062 126.197 495.075 125.396C494.263 125.091 493.798 124.758 494.136 124.629C494.39 124.532 493.931 124.272 493.042 124.075C491.62 123.773 491.409 123.343 491.431 121.571C491.417 120.401 491.748 119.176 492.069 118.849C492.474 118.49 492.598 117.906 492.391 117.525C492.181 117.119 492.018 116.236 492.047 115.56C492.103 111.143 491.993 110.878 488.201 109.385C483.682 107.555 482.577 106.878 482.393 105.747C482.262 105.235 481.699 104.784 480.998 104.745C479.594 104.642 478.161 101.175 479.547 101.056C480.066 101.011 480.056 100.887 479.432 100.742C478.541 100.519 479.188 97.896 480.266 97.2547C480.6 97.0765 480.943 95.9999 481.107 94.864C481.184 93.7356 481.466 91.9414 481.639 90.9045C482.135 87.5464 482.121 86.3759 481.602 86.4206C481.342 86.443 481.027 85.822 480.872 85.0376C480.677 83.783 479.973 82.6969 479.043 82.0291C478.022 81.3193 479.813 77.7998 482.036 76.2624C483.925 74.9032 484.389 74.2151 484.424 72.5918C484.503 71.4881 484.894 68.9367 485.33 66.9049C486.142 63.1705 485.486 60.6096 483.506 59.9074C482.695 59.6033 482.843 59.2915 484.16 58.3804C485.562 57.4371 485.62 57.108 484.836 56.1036C484.344 55.448 483.709 54.1565 483.542 53.2236C483.285 52.2735 482.801 50.6948 482.365 49.6854C481.698 48.0227 481.854 47.8098 483.461 47.2228C484.479 46.8859 485.735 46.2792 486.311 45.8806C487.711 44.9126 486.985 42.557 485.221 42.3349C484.429 42.2535 483.802 42.0582 483.789 41.9098C483.746 41.4149 477.569 41.5976 463.344 42.5229C461.956 42.6174 459.173 42.7074 457.255 42.7229C452.284 42.727 444.645 43.1602 434.948 43.9949C428.8 44.524 426.716 44.6286 426.956 44.3836C427.361 44.0246 422.132 44.0759 411.36 44.5793C404.671 44.9057 398.275 45.5809 396.406 46.1656C395.813 46.3662 395.116 46.3763 394.495 46.2553C393.87 46.0848 390.222 46.274 383.291 46.8208C377.659 47.2557 370.72 47.7034 367.85 47.8009C362.196 47.9884 358.213 48.3312 351.394 49.1674C347.942 49.5893 346.725 49.6441 345.832 49.397C345.118 49.2091 343.2 49.2246 341.033 49.3862C339.126 49.5254 336.522 49.6747 335.302 49.6801C334.081 49.6855 331.401 49.966 329.249 50.3008C326.238 50.7843 324.68 50.9185 322.32 50.8722C318.128 50.8093 314.492 51.1223 312.798 51.7168C311.527 52.1503 311.181 52.1801 309.497 51.8763C307.373 51.5107 305.286 51.5906 304.805 52.0807C304.562 52.3011 303.872 52.3854 302.733 52.3338C300.982 52.2602 294.125 52.651 293.621 52.8689Z" fill="white"/>
</g>
<defs>
<filter id="filter0_d_0_1570" x="0.0139618" y="0.641785" width="541.102" height="218.423" filterUnits="userSpaceOnUse" color-interpolation-filters="sRGB">
<feFlood flood-opacity="0" result="BackgroundImageFix"/>
<feColorMatrix in="SourceAlpha" type="matrix" values="0 0 0 0 0 0 0 0 0 0 0 0 0 0 0 0 0 0 127 0" result="hardAlpha"/>
<feOffset dy="4"/>
<feGaussianBlur stdDeviation="22.5"/>
<feComposite in2="hardAlpha" operator="out"/>
<feColorMatrix type="matrix" values="0 0 0 0 0 0 0 0 0 0 0 0 0 0 0 0 0 0 0.25 0"/>
<feBlend mode="normal" in2="BackgroundImageFix" result="effect1_dropShadow_0_1570"/>
<feBlend mode="normal" in="SourceGraphic" in2="effect1_dropShadow_0_1570" result="shape"/>
</filter>
</defs>
</svg>
