<svg width="41" height="42" viewBox="0 0 41 42" fill="none" xmlns="http://www.w3.org/2000/svg">
<path d="M5.77444 0C2.58947 0 0 2.69063 0 6V36C0 39.3094 2.58947 42 5.77444 42H34.6466C37.8316 42 40.4211 39.3094 40.4211 36V6C40.4211 2.69063 37.8316 0 34.6466 0H5.77444ZM31.6962 15.6844C31.6962 23.8125 25.7414 33.1781 14.8602 33.1781C11.5038 33.1781 8.39098 32.1656 5.77444 30.4219C6.25263 30.4781 6.71278 30.4969 7.2 30.4969C9.96992 30.4969 12.5143 29.5219 14.5444 27.8719C11.9459 27.8156 9.76241 26.0437 9.01353 23.6062C9.92481 23.7469 10.7459 23.7469 11.6842 23.4938C8.97744 22.9219 6.94737 20.4469 6.94737 17.4562V17.3812C7.73233 17.8406 8.65263 18.1219 9.61804 18.1594C8.80602 17.5969 8.13835 16.8375 7.67819 15.9469C7.21804 15.0563 6.97444 14.0531 6.98346 13.0406C6.98346 11.8969 7.27218 10.8469 7.78647 9.9375C10.7008 13.6687 15.0767 16.1063 19.985 16.3688C19.1459 12.1969 22.1504 8.8125 25.7594 8.8125C27.4647 8.8125 28.9985 9.55312 30.0812 10.7531C31.4165 10.4906 32.6977 9.975 33.8346 9.27187C33.3925 10.6969 32.4632 11.8969 31.2361 12.6562C32.4271 12.525 33.582 12.1781 34.6466 11.7C33.8436 12.9281 32.8331 14.0156 31.6782 14.8875C31.6962 15.15 31.6962 15.4219 31.6962 15.6844Z" fill="#494C21"/>
</svg>
